<svg xmlns="http://www.w3.org/2000/svg" xmlns:xlink="http://www.w3.org/1999/xlink" viewBox="0 0 446.01 513.69"><defs><style>.cls-1,.cls-2,.cls-3,.cls-4{fill-rule:evenodd;}.cls-1{opacity:0.2;fill:url(#linear-gradient);}.cls-2{opacity:0.4;fill:url(#linear-gradient-2);}.cls-3{opacity:0.6;fill:url(#linear-gradient-3);}.cls-4{fill:url(#linear-gradient-4);}</style><linearGradient id="linear-gradient" x1="1715.61" y1="-150.61" x2="2289.48" y2="-150.61" gradientTransform="translate(-593.56 2107.01) rotate(-61.94)" gradientUnits="userSpaceOnUse"><stop offset="0" stop-color="#ffea00"/><stop offset="0" stop-color="#fce201"/><stop offset="0" stop-color="#bc1e1a"/><stop offset="1" stop-color="#4361ee"/></linearGradient><linearGradient id="linear-gradient-2" x1="1743.11" y1="-150.68" x2="2261.62" y2="-150.68" xlink:href="#linear-gradient"/><linearGradient id="linear-gradient-3" x1="1770.93" y1="-150.61" x2="2234.16" y2="-150.61" xlink:href="#linear-gradient"/><linearGradient id="linear-gradient-4" x1="1796.36" y1="-150.6" x2="2208.99" y2="-150.6" xlink:href="#linear-gradient"/></defs><title>bg_blob</title><g id="Layer_2" data-name="Layer 2"><g id="Layer_1-2" data-name="Layer 1"><path class="cls-1" d="M15.45,441C8.13,420.24-21.34,327.52,27.79,251.34c28.44-44.1,49.19-29.89,90.06-79.66,54.4-66.26,32.9-110,77.54-145.48,42.33-33.64,110.88-33.38,160-7.8,85.86,44.76,111.91,167,73.15,220-25.45,34.83-84.26,47.3-134.78,58-43.75,9.27-52.79,3.9-71.62,16.65C185.27,338,197,374,160.27,434.47c-7.67,12.63-52.19,85.88-93.17,78.73C39.28,508.34,25.2,468.53,15.45,441Z"/><path class="cls-2" d="M34.59,424.49C28,405.77,1.35,322,45.74,253.17c25.7-39.85,44.45-27,81.37-72,49.16-59.87,29.73-99.4,70.06-131.45,38.26-30.39,100.19-30.16,144.52-7.05,77.58,40.45,101.12,150.86,66.1,198.8C384.79,273,331.65,284.23,286,293.9c-39.53,8.38-47.69,3.52-64.71,15-33.27,22.52-22.65,55-55.86,109.69-6.93,11.42-47.15,77.6-84.18,71.14C56.12,485.38,43.4,449.41,34.59,424.49Z"/><path class="cls-3" d="M54,407.79c-5.91-16.72-29.7-91.56,10-153,23-35.6,39.71-24.13,72.7-64.31C180.57,137,163.21,101.63,199.25,73c34.17-27.15,89.5-26.95,129.11-6.3,69.31,36.14,90.34,134.78,59,177.61-20.54,28.11-68,38.17-108.79,46.82-35.31,7.48-42.61,3.14-57.81,13.43-29.72,20.12-20.23,49.17-49.9,98-6.2,10.2-42.13,69.33-75.21,63.55C73.23,462.19,61.87,430.05,54,407.79Z"/><path class="cls-4" d="M71.7,392.52C66.43,377.63,45.24,311,80.57,256.18c20.45-31.71,35.37-21.49,64.76-57.28,39.12-47.64,23.65-79.1,55.75-104.61,30.44-24.19,79.73-24,115-5.6,61.74,32.18,80.48,120.05,52.6,158.2-18.3,25.05-60.59,34-96.91,41.71-31.46,6.66-38,2.8-51.5,12-26.48,17.93-18,43.81-44.45,87.3-5.52,9.08-37.52,61.75-67,56.61C88.83,441,78.71,412.35,71.7,392.52Z"/></g></g></svg>