<svg xmlns="http://www.w3.org/2000/svg" xmlns:xlink="http://www.w3.org/1999/xlink" viewBox="0 0 2562.94 4500"><defs><style>.cls-1{opacity:0.94;}.cls-10,.cls-100,.cls-101,.cls-102,.cls-103,.cls-104,.cls-105,.cls-11,.cls-12,.cls-13,.cls-14,.cls-15,.cls-16,.cls-17,.cls-18,.cls-19,.cls-2,.cls-20,.cls-21,.cls-22,.cls-23,.cls-24,.cls-25,.cls-26,.cls-27,.cls-28,.cls-29,.cls-3,.cls-30,.cls-31,.cls-32,.cls-33,.cls-34,.cls-35,.cls-36,.cls-37,.cls-38,.cls-39,.cls-4,.cls-40,.cls-41,.cls-42,.cls-43,.cls-44,.cls-45,.cls-46,.cls-47,.cls-48,.cls-49,.cls-5,.cls-50,.cls-51,.cls-52,.cls-53,.cls-54,.cls-55,.cls-56,.cls-57,.cls-58,.cls-59,.cls-6,.cls-60,.cls-61,.cls-62,.cls-63,.cls-64,.cls-65,.cls-66,.cls-67,.cls-68,.cls-69,.cls-7,.cls-70,.cls-71,.cls-72,.cls-73,.cls-74,.cls-75,.cls-76,.cls-77,.cls-78,.cls-79,.cls-8,.cls-80,.cls-81,.cls-82,.cls-83,.cls-84,.cls-85,.cls-86,.cls-87,.cls-88,.cls-89,.cls-9,.cls-90,.cls-91,.cls-92,.cls-93,.cls-94,.cls-95,.cls-96,.cls-97,.cls-98,.cls-99{fill-rule:evenodd;}.cls-10,.cls-102,.cls-14,.cls-18,.cls-2,.cls-22,.cls-26,.cls-30,.cls-34,.cls-38,.cls-42,.cls-46,.cls-50,.cls-54,.cls-58,.cls-6,.cls-62,.cls-66,.cls-70,.cls-74,.cls-78,.cls-82,.cls-86,.cls-90,.cls-94,.cls-98{opacity:0.2;}.cls-2{fill:url(#linear-gradient);}.cls-103,.cls-11,.cls-15,.cls-19,.cls-23,.cls-27,.cls-3,.cls-31,.cls-35,.cls-39,.cls-43,.cls-47,.cls-51,.cls-55,.cls-59,.cls-63,.cls-67,.cls-7,.cls-71,.cls-75,.cls-79,.cls-83,.cls-87,.cls-91,.cls-95,.cls-99{opacity:0.4;}.cls-3{fill:url(#linear-gradient-2);}.cls-100,.cls-104,.cls-12,.cls-16,.cls-20,.cls-24,.cls-28,.cls-32,.cls-36,.cls-4,.cls-40,.cls-44,.cls-48,.cls-52,.cls-56,.cls-60,.cls-64,.cls-68,.cls-72,.cls-76,.cls-8,.cls-80,.cls-84,.cls-88,.cls-92,.cls-96{opacity:0.6;}.cls-4{fill:url(#linear-gradient-3);}.cls-5{fill:url(#linear-gradient-4);}.cls-6{fill:url(#linear-gradient-5);}.cls-7{fill:url(#linear-gradient-6);}.cls-8{fill:url(#linear-gradient-7);}.cls-9{fill:url(#linear-gradient-8);}.cls-10{fill:url(#linear-gradient-9);}.cls-11{fill:url(#linear-gradient-10);}.cls-12{fill:url(#linear-gradient-11);}.cls-13{fill:url(#linear-gradient-12);}.cls-14{fill:url(#linear-gradient-13);}.cls-15{fill:url(#linear-gradient-14);}.cls-16{fill:url(#linear-gradient-15);}.cls-17{fill:url(#linear-gradient-16);}.cls-18{fill:url(#linear-gradient-17);}.cls-19{fill:url(#linear-gradient-18);}.cls-20{fill:url(#linear-gradient-19);}.cls-21{fill:url(#linear-gradient-20);}.cls-22{fill:url(#linear-gradient-21);}.cls-23{fill:url(#linear-gradient-22);}.cls-24{fill:url(#linear-gradient-23);}.cls-25{fill:url(#linear-gradient-24);}.cls-26{fill:url(#linear-gradient-25);}.cls-27{fill:url(#linear-gradient-26);}.cls-28{fill:url(#linear-gradient-27);}.cls-29{fill:url(#linear-gradient-28);}.cls-30{fill:url(#linear-gradient-29);}.cls-31{fill:url(#linear-gradient-30);}.cls-32{fill:url(#linear-gradient-31);}.cls-33{fill:url(#linear-gradient-32);}.cls-34{fill:url(#linear-gradient-33);}.cls-35{fill:url(#linear-gradient-34);}.cls-36{fill:url(#linear-gradient-35);}.cls-37{fill:url(#linear-gradient-36);}.cls-38{fill:url(#linear-gradient-37);}.cls-39{fill:url(#linear-gradient-38);}.cls-40{fill:url(#linear-gradient-39);}.cls-41{fill:url(#linear-gradient-40);}.cls-42{fill:url(#linear-gradient-41);}.cls-43{fill:url(#linear-gradient-42);}.cls-44{fill:url(#linear-gradient-43);}.cls-45{fill:url(#linear-gradient-44);}.cls-46{fill:url(#linear-gradient-45);}.cls-47{fill:url(#linear-gradient-46);}.cls-48{fill:url(#linear-gradient-47);}.cls-49{fill:url(#linear-gradient-48);}.cls-50{fill:url(#linear-gradient-49);}.cls-51{fill:url(#linear-gradient-50);}.cls-52{fill:url(#linear-gradient-51);}.cls-53{fill:url(#linear-gradient-52);}.cls-54{fill:url(#linear-gradient-53);}.cls-55{fill:url(#linear-gradient-54);}.cls-56{fill:url(#linear-gradient-55);}.cls-57{fill:url(#linear-gradient-56);}.cls-58{fill:url(#linear-gradient-57);}.cls-59{fill:url(#linear-gradient-58);}.cls-60{fill:url(#linear-gradient-59);}.cls-61{fill:url(#linear-gradient-60);}.cls-62{fill:url(#linear-gradient-61);}.cls-63{fill:url(#linear-gradient-62);}.cls-64{fill:url(#linear-gradient-63);}.cls-65{fill:url(#linear-gradient-64);}.cls-66{fill:url(#linear-gradient-65);}.cls-67{fill:url(#linear-gradient-66);}.cls-68{fill:url(#linear-gradient-67);}.cls-69{fill:url(#linear-gradient-68);}.cls-70{fill:url(#linear-gradient-69);}.cls-71{fill:url(#linear-gradient-70);}.cls-72{fill:url(#linear-gradient-71);}.cls-73{fill:url(#linear-gradient-72);}.cls-74{fill:url(#linear-gradient-73);}.cls-75{fill:url(#linear-gradient-74);}.cls-76{fill:url(#linear-gradient-75);}.cls-77{fill:url(#linear-gradient-76);}.cls-78{fill:url(#linear-gradient-77);}.cls-79{fill:url(#linear-gradient-78);}.cls-80{fill:url(#linear-gradient-79);}.cls-81{fill:url(#linear-gradient-80);}.cls-82{fill:url(#linear-gradient-81);}.cls-83{fill:url(#linear-gradient-82);}.cls-84{fill:url(#linear-gradient-83);}.cls-85{fill:url(#linear-gradient-84);}.cls-86{fill:url(#linear-gradient-85);}.cls-87{fill:url(#linear-gradient-86);}.cls-88{fill:url(#linear-gradient-87);}.cls-89{fill:url(#linear-gradient-88);}.cls-90{fill:url(#linear-gradient-89);}.cls-91{fill:url(#linear-gradient-90);}.cls-92{fill:url(#linear-gradient-91);}.cls-93{fill:url(#linear-gradient-92);}.cls-94{fill:url(#linear-gradient-93);}.cls-95{fill:url(#linear-gradient-94);}.cls-96{fill:url(#linear-gradient-95);}.cls-97{fill:url(#linear-gradient-96);}.cls-98{fill:url(#linear-gradient-97);}.cls-99{fill:url(#linear-gradient-98);}.cls-100{fill:url(#linear-gradient-99);}.cls-101{fill:url(#linear-gradient-100);}.cls-102{fill:url(#linear-gradient-101);}.cls-103{fill:url(#linear-gradient-102);}.cls-104{fill:url(#linear-gradient-103);}.cls-105{fill:url(#linear-gradient-104);}</style><linearGradient id="linear-gradient" x1="2772.63" y1="776.37" x2="3216.47" y2="776.37" gradientTransform="matrix(0.66, 0.75, 0.75, -0.66, -2299.43, -1350.4)" gradientUnits="userSpaceOnUse"><stop offset="0" stop-color="#bc1e1a"/><stop offset="0.41" stop-color="#bc1e1a"/><stop offset="1" stop-color="#4361ee"/></linearGradient><linearGradient id="linear-gradient-2" x1="2793.9" y1="776.31" x2="3194.93" y2="776.31" xlink:href="#linear-gradient"/><linearGradient id="linear-gradient-3" x1="2815.42" y1="776.37" x2="3173.69" y2="776.37" xlink:href="#linear-gradient"/><linearGradient id="linear-gradient-4" x1="2835.08" y1="776.38" x2="3154.22" y2="776.38" xlink:href="#linear-gradient"/><linearGradient id="linear-gradient-5" x1="772.58" y1="61.89" x2="1076.93" y2="61.89" gradientTransform="matrix(1, 0, 0, 1, 0, 0)" xlink:href="#linear-gradient"/><linearGradient id="linear-gradient-6" x1="805.12" y1="52.6" x2="1057.37" y2="52.6" gradientTransform="matrix(1, 0, 0, 1, 0, 0)" xlink:href="#linear-gradient"/><linearGradient id="linear-gradient-7" x1="828.8" y1="43.37" x2="1037.71" y2="43.37" gradientTransform="matrix(1, 0, 0, 1, 0, 0)" xlink:href="#linear-gradient"/><linearGradient id="linear-gradient-8" x1="845.76" y1="34.94" x2="1019.17" y2="34.94" gradientTransform="matrix(1, 0, 0, 1, 0, 0)" xlink:href="#linear-gradient"/><linearGradient id="linear-gradient-9" x1="2252.8" y1="1156.51" x2="2696.64" y2="1156.51" gradientTransform="matrix(0.94, -0.34, -0.34, -0.94, -1394.49, 2751.53)" xlink:href="#linear-gradient"/><linearGradient id="linear-gradient-10" x1="2274.07" y1="1156.46" x2="2675.09" y2="1156.46" gradientTransform="matrix(0.94, -0.34, -0.34, -0.94, -1394.49, 2751.53)" xlink:href="#linear-gradient"/><linearGradient id="linear-gradient-11" x1="2295.58" y1="1156.51" x2="2653.86" y2="1156.51" gradientTransform="matrix(0.94, -0.34, -0.34, -0.94, -1394.49, 2751.53)" xlink:href="#linear-gradient"/><linearGradient id="linear-gradient-12" x1="2315.25" y1="1156.52" x2="2634.39" y2="1156.52" gradientTransform="matrix(0.94, -0.34, -0.34, -0.94, -1394.49, 2751.53)" xlink:href="#linear-gradient"/><linearGradient id="linear-gradient-13" x1="1775.26" y1="503.49" x2="2219.1" y2="503.49" gradientTransform="matrix(0.76, -0.66, -0.66, -0.76, -148.03, 2192.52)" xlink:href="#linear-gradient"/><linearGradient id="linear-gradient-14" x1="1796.53" y1="503.43" x2="2197.56" y2="503.43" gradientTransform="matrix(0.76, -0.66, -0.66, -0.76, -148.03, 2192.52)" xlink:href="#linear-gradient"/><linearGradient id="linear-gradient-15" x1="1818.05" y1="503.49" x2="2176.32" y2="503.49" gradientTransform="matrix(0.76, -0.66, -0.66, -0.76, -148.03, 2192.52)" xlink:href="#linear-gradient"/><linearGradient id="linear-gradient-16" x1="1837.71" y1="503.5" x2="2156.85" y2="503.5" gradientTransform="matrix(0.76, -0.66, -0.66, -0.76, -148.03, 2192.52)" xlink:href="#linear-gradient"/><linearGradient id="linear-gradient-17" x1="1750.58" y1="81.92" x2="2075.14" y2="81.92" gradientTransform="matrix(1, 0, 0, 1, 0, 0)" xlink:href="#linear-gradient"/><linearGradient id="linear-gradient-18" x1="1766.79" y1="73.42" x2="2057.69" y2="73.42" gradientTransform="matrix(1, 0, 0, 1, 0, 0)" xlink:href="#linear-gradient"/><linearGradient id="linear-gradient-19" x1="1783.13" y1="64.8" x2="2039.87" y2="64.8" gradientTransform="matrix(1, 0, 0, 1, 0, 0)" xlink:href="#linear-gradient"/><linearGradient id="linear-gradient-20" x1="1798.09" y1="56.94" x2="2023.57" y2="56.94" gradientTransform="matrix(1, 0, 0, 1, 0, 0)" xlink:href="#linear-gradient"/><linearGradient id="linear-gradient-21" x1="0" y1="2060.21" x2="249.55" y2="2060.21" gradientTransform="matrix(1, 0, 0, 1, 0, 0)" xlink:href="#linear-gradient"/><linearGradient id="linear-gradient-22" x1="0" y1="2059.79" x2="228.04" y2="2059.79" gradientTransform="matrix(1, 0, 0, 1, 0, 0)" xlink:href="#linear-gradient"/><linearGradient id="linear-gradient-23" x1="0" y1="2059.32" x2="206.85" y2="2059.32" gradientTransform="matrix(1, 0, 0, 1, 0, 0)" xlink:href="#linear-gradient"/><linearGradient id="linear-gradient-24" x1="0" y1="2058.92" x2="187.42" y2="2058.92" gradientTransform="matrix(1, 0, 0, 1, 0, 0)" xlink:href="#linear-gradient"/><linearGradient id="linear-gradient-25" x1="1732.96" y1="1536.65" x2="2176.81" y2="1536.65" gradientTransform="matrix(0.1, 0.99, 0.99, -0.1, -948.53, -324.36)" xlink:href="#linear-gradient"/><linearGradient id="linear-gradient-26" x1="1754.23" y1="1536.6" x2="2155.26" y2="1536.6" gradientTransform="matrix(0.1, 0.99, 0.99, -0.1, -948.53, -324.36)" xlink:href="#linear-gradient"/><linearGradient id="linear-gradient-27" x1="1775.75" y1="1536.65" x2="2134.02" y2="1536.65" gradientTransform="matrix(0.1, 0.99, 0.99, -0.1, -948.53, -324.36)" xlink:href="#linear-gradient"/><linearGradient id="linear-gradient-28" x1="1795.41" y1="1536.66" x2="2114.56" y2="1536.66" gradientTransform="matrix(0.1, 0.99, 0.99, -0.1, -948.53, -324.36)" xlink:href="#linear-gradient"/><linearGradient id="linear-gradient-29" x1="1255.43" y1="883.63" x2="1699.27" y2="883.63" gradientTransform="matrix(0.87, -0.5, -0.5, -0.87, 702.78, 2469.06)" xlink:href="#linear-gradient"/><linearGradient id="linear-gradient-30" x1="1276.69" y1="883.58" x2="1677.72" y2="883.58" gradientTransform="matrix(0.87, -0.5, -0.5, -0.87, 702.78, 2469.06)" xlink:href="#linear-gradient"/><linearGradient id="linear-gradient-31" x1="1298.21" y1="883.63" x2="1656.48" y2="883.63" gradientTransform="matrix(0.87, -0.5, -0.5, -0.87, 702.78, 2469.06)" xlink:href="#linear-gradient"/><linearGradient id="linear-gradient-32" x1="1317.87" y1="883.64" x2="1637.02" y2="883.64" gradientTransform="matrix(0.87, -0.5, -0.5, -0.87, 702.78, 2469.06)" xlink:href="#linear-gradient"/><linearGradient id="linear-gradient-33" x1="777.89" y1="230.61" x2="1221.73" y2="230.61" gradientTransform="matrix(-0.07, 1, 1, 0.07, 1955.64, -507.68)" xlink:href="#linear-gradient"/><linearGradient id="linear-gradient-34" x1="799.15" y1="230.55" x2="1200.18" y2="230.55" gradientTransform="matrix(-0.07, 1, 1, 0.07, 1955.64, -507.68)" xlink:href="#linear-gradient"/><linearGradient id="linear-gradient-35" x1="820.67" y1="230.61" x2="1178.94" y2="230.61" gradientTransform="matrix(-0.07, 1, 1, 0.07, 1955.64, -507.68)" xlink:href="#linear-gradient"/><linearGradient id="linear-gradient-36" x1="840.34" y1="230.62" x2="1159.48" y2="230.62" gradientTransform="matrix(-0.07, 1, 1, 0.07, 1955.64, -507.68)" xlink:href="#linear-gradient"/><linearGradient id="linear-gradient-37" x1="1690.67" y1="2569.82" x2="2134.51" y2="2569.82" gradientTransform="matrix(0.41, 0.91, 0.91, -0.41, -2746.66, 1870.42)" xlink:href="#linear-gradient"/><linearGradient id="linear-gradient-38" x1="1711.94" y1="2569.76" x2="2112.96" y2="2569.76" gradientTransform="matrix(0.41, 0.91, 0.91, -0.41, -2746.66, 1870.42)" xlink:href="#linear-gradient"/><linearGradient id="linear-gradient-39" x1="1733.45" y1="2569.82" x2="2091.73" y2="2569.82" gradientTransform="matrix(0.41, 0.91, 0.91, -0.41, -2746.66, 1870.42)" xlink:href="#linear-gradient"/><linearGradient id="linear-gradient-40" x1="1753.12" y1="2569.82" x2="2072.26" y2="2569.82" gradientTransform="matrix(0.41, 0.91, 0.91, -0.41, -2746.66, 1870.42)" xlink:href="#linear-gradient"/><linearGradient id="linear-gradient-41" x1="1213.13" y1="1916.79" x2="1656.97" y2="1916.79" gradientTransform="matrix(0.7, 0.72, 0.72, -0.7, -1391.96, 2326)" xlink:href="#linear-gradient"/><linearGradient id="linear-gradient-42" x1="1234.4" y1="1916.74" x2="1635.43" y2="1916.74" gradientTransform="matrix(0.7, 0.72, 0.72, -0.7, -1391.96, 2326)" xlink:href="#linear-gradient"/><linearGradient id="linear-gradient-43" x1="1255.92" y1="1916.79" x2="1614.19" y2="1916.79" gradientTransform="matrix(0.7, 0.72, 0.72, -0.7, -1391.96, 2326)" xlink:href="#linear-gradient"/><linearGradient id="linear-gradient-44" x1="1275.58" y1="1916.8" x2="1594.72" y2="1916.8" gradientTransform="matrix(0.7, 0.72, 0.72, -0.7, -1391.96, 2326)" xlink:href="#linear-gradient"/><linearGradient id="linear-gradient-45" x1="735.59" y1="1263.77" x2="1179.43" y2="1263.77" gradientTransform="matrix(1, 0.01, 0.01, -1, 785.56, 2807.57)" xlink:href="#linear-gradient"/><linearGradient id="linear-gradient-46" x1="756.86" y1="1263.72" x2="1157.89" y2="1263.72" gradientTransform="matrix(1, 0.01, 0.01, -1, 785.56, 2807.57)" xlink:href="#linear-gradient"/><linearGradient id="linear-gradient-47" x1="778.38" y1="1263.77" x2="1136.65" y2="1263.77" gradientTransform="matrix(1, 0.01, 0.01, -1, 785.56, 2807.57)" xlink:href="#linear-gradient"/><linearGradient id="linear-gradient-48" x1="798.04" y1="1263.78" x2="1117.18" y2="1263.78" gradientTransform="matrix(1, 0.01, 0.01, -1, 785.56, 2807.57)" xlink:href="#linear-gradient"/><linearGradient id="linear-gradient-49" x1="2309.83" y1="1262.44" x2="2560" y2="1262.44" gradientTransform="matrix(1, 0, 0, 1, 0, 0)" xlink:href="#linear-gradient"/><linearGradient id="linear-gradient-50" x1="2326.3" y1="1261.19" x2="2560" y2="1261.19" gradientTransform="matrix(1, 0, 0, 1, 0, 0)" xlink:href="#linear-gradient"/><linearGradient id="linear-gradient-51" x1="2342.98" y1="1260.12" x2="2560" y2="1260.12" gradientTransform="matrix(1, 0, 0, 1, 0, 0)" xlink:href="#linear-gradient"/><linearGradient id="linear-gradient-52" x1="2358.19" y1="1259.14" x2="2560" y2="1259.14" gradientTransform="matrix(1, 0, 0, 1, 0, 0)" xlink:href="#linear-gradient"/><linearGradient id="linear-gradient-53" x1="0" y1="3435.38" x2="276.02" y2="3435.38" gradientTransform="matrix(1, 0, 0, 1, 0, 0)" xlink:href="#linear-gradient"/><linearGradient id="linear-gradient-54" x1="0" y1="3435.97" x2="258.16" y2="3435.97" gradientTransform="matrix(1, 0, 0, 1, 0, 0)" xlink:href="#linear-gradient"/><linearGradient id="linear-gradient-55" x1="0" y1="3436.27" x2="240.42" y2="3436.27" gradientTransform="matrix(1, 0, 0, 1, 0, 0)" xlink:href="#linear-gradient"/><linearGradient id="linear-gradient-56" x1="0" y1="3436.6" x2="224.2" y2="3436.6" gradientTransform="matrix(1, 0, 0, 1, 0, 0)" xlink:href="#linear-gradient"/><linearGradient id="linear-gradient-57" x1="1170.83" y1="2949.96" x2="1614.68" y2="2949.96" gradientTransform="matrix(0.81, -0.59, -0.59, -0.81, 1544.99, 6198.55)" xlink:href="#linear-gradient"/><linearGradient id="linear-gradient-58" x1="1192.1" y1="2949.9" x2="1593.13" y2="2949.9" gradientTransform="matrix(0.81, -0.59, -0.59, -0.81, 1544.99, 6198.55)" xlink:href="#linear-gradient"/><linearGradient id="linear-gradient-59" x1="1213.62" y1="2949.96" x2="1571.89" y2="2949.96" gradientTransform="matrix(0.81, -0.59, -0.59, -0.81, 1544.99, 6198.55)" xlink:href="#linear-gradient"/><linearGradient id="linear-gradient-60" x1="1233.28" y1="2949.97" x2="1552.43" y2="2949.97" gradientTransform="matrix(0.81, -0.59, -0.59, -0.81, 1544.99, 6198.55)" xlink:href="#linear-gradient"/><linearGradient id="linear-gradient-61" x1="693.3" y1="2296.94" x2="1137.14" y2="2296.94" gradientTransform="matrix(0.97, 0.23, 0.23, -0.97, 22.28, 4475.52)" xlink:href="#linear-gradient"/><linearGradient id="linear-gradient-62" x1="714.56" y1="2296.88" x2="1115.59" y2="2296.88" gradientTransform="matrix(0.97, 0.23, 0.23, -0.97, 22.28, 4475.52)" xlink:href="#linear-gradient"/><linearGradient id="linear-gradient-63" x1="736.08" y1="2296.94" x2="1094.35" y2="2296.94" gradientTransform="matrix(0.97, 0.23, 0.23, -0.97, 22.28, 4475.52)" xlink:href="#linear-gradient"/><linearGradient id="linear-gradient-64" x1="755.75" y1="2296.94" x2="1074.89" y2="2296.94" gradientTransform="matrix(0.97, 0.23, 0.23, -0.97, 22.28, 4475.52)" xlink:href="#linear-gradient"/><linearGradient id="linear-gradient-65" x1="215.76" y1="1643.91" x2="659.6" y2="1643.91" gradientTransform="matrix(1, -0.01, -0.01, -1, 1903.49, 3804.02)" xlink:href="#linear-gradient"/><linearGradient id="linear-gradient-66" x1="237.02" y1="1643.86" x2="638.05" y2="1643.86" gradientTransform="matrix(1, -0.01, -0.01, -1, 1903.49, 3804.02)" xlink:href="#linear-gradient"/><linearGradient id="linear-gradient-67" x1="258.54" y1="1643.91" x2="616.81" y2="1643.91" gradientTransform="matrix(1, -0.01, -0.01, -1, 1903.49, 3804.02)" xlink:href="#linear-gradient"/><linearGradient id="linear-gradient-68" x1="278.21" y1="1643.92" x2="597.35" y2="1643.92" gradientTransform="matrix(1, -0.01, -0.01, -1, 1903.49, 3804.02)" xlink:href="#linear-gradient"/><linearGradient id="linear-gradient-69" x1="1128.54" y1="3983.12" x2="1572.38" y2="3983.12" gradientTransform="matrix(0.53, 0.85, 0.85, -0.53, -3507.62, 4935.3)" xlink:href="#linear-gradient"/><linearGradient id="linear-gradient-70" x1="1149.81" y1="3983.07" x2="1550.83" y2="3983.07" gradientTransform="matrix(0.53, 0.85, 0.85, -0.53, -3507.62, 4935.3)" xlink:href="#linear-gradient"/><linearGradient id="linear-gradient-71" x1="1171.32" y1="3983.12" x2="1529.6" y2="3983.12" gradientTransform="matrix(0.53, 0.85, 0.85, -0.53, -3507.62, 4935.3)" xlink:href="#linear-gradient"/><linearGradient id="linear-gradient-72" x1="1190.99" y1="3983.13" x2="1510.13" y2="3983.13" gradientTransform="matrix(0.53, 0.85, 0.85, -0.53, -3507.62, 4935.3)" xlink:href="#linear-gradient"/><linearGradient id="linear-gradient-73" x1="651" y1="3330.1" x2="1094.84" y2="3330.1" gradientTransform="matrix(-0.04, 1, 1, 0.04, -2145.02, 2354.84)" xlink:href="#linear-gradient"/><linearGradient id="linear-gradient-74" x1="672.27" y1="3330.05" x2="1073.3" y2="3330.05" gradientTransform="matrix(-0.04, 1, 1, 0.04, -2145.02, 2354.84)" xlink:href="#linear-gradient"/><linearGradient id="linear-gradient-75" x1="693.79" y1="3330.1" x2="1052.06" y2="3330.1" gradientTransform="matrix(-0.04, 1, 1, 0.04, -2145.02, 2354.84)" xlink:href="#linear-gradient"/><linearGradient id="linear-gradient-76" x1="713.45" y1="3330.11" x2="1032.59" y2="3330.11" gradientTransform="matrix(-0.04, 1, 1, 0.04, -2145.02, 2354.84)" xlink:href="#linear-gradient"/><linearGradient id="linear-gradient-77" x1="173.46" y1="2677.08" x2="617.3" y2="2677.08" gradientTransform="matrix(-0.02, 1, 1, 0.02, -901.45, 2708.79)" xlink:href="#linear-gradient"/><linearGradient id="linear-gradient-78" x1="194.73" y1="2677.02" x2="595.76" y2="2677.02" gradientTransform="matrix(-0.02, 1, 1, 0.02, -901.45, 2708.79)" xlink:href="#linear-gradient"/><linearGradient id="linear-gradient-79" x1="216.25" y1="2677.08" x2="574.52" y2="2677.08" gradientTransform="matrix(-0.02, 1, 1, 0.02, -901.45, 2708.79)" xlink:href="#linear-gradient"/><linearGradient id="linear-gradient-80" x1="235.91" y1="2677.09" x2="555.05" y2="2677.09" gradientTransform="matrix(-0.02, 1, 1, 0.02, -901.45, 2708.79)" xlink:href="#linear-gradient"/><linearGradient id="linear-gradient-81" x1="2414.93" y1="2685.88" x2="2560" y2="2685.88" gradientTransform="matrix(1, 0, 0, 1, 0, 0)" xlink:href="#linear-gradient"/><linearGradient id="linear-gradient-82" x1="2434.47" y1="2678.79" x2="2560" y2="2678.79" gradientTransform="matrix(1, 0, 0, 1, 0, 0)" xlink:href="#linear-gradient"/><linearGradient id="linear-gradient-83" x1="2454.22" y1="2671.28" x2="2560" y2="2671.28" gradientTransform="matrix(1, 0, 0, 1, 0, 0)" xlink:href="#linear-gradient"/><linearGradient id="linear-gradient-84" x1="2472.29" y1="2664.19" x2="2560" y2="2664.19" gradientTransform="matrix(1, 0, 0, 1, 0, 0)" xlink:href="#linear-gradient"/><linearGradient id="linear-gradient-85" x1="831.7" y1="4443.34" x2="1059.22" y2="4443.34" gradientTransform="matrix(1, 0, 0, 1, 0, 0)" xlink:href="#linear-gradient"/><linearGradient id="linear-gradient-86" x1="834.95" y1="4452.39" x2="1038.66" y2="4452.39" gradientTransform="matrix(1, 0, 0, 1, 0, 0)" xlink:href="#linear-gradient"/><linearGradient id="linear-gradient-87" x1="838.46" y1="4461.3" x2="1017.79" y2="4461.3" gradientTransform="matrix(1, 0, 0, 1, 0, 0)" xlink:href="#linear-gradient"/><linearGradient id="linear-gradient-88" x1="841.87" y1="4469.48" x2="998.02" y2="4469.48" gradientTransform="matrix(1, 0, 0, 1, 0, 0)" xlink:href="#linear-gradient"/><linearGradient id="linear-gradient-89" x1="131.17" y1="3710.24" x2="575.01" y2="3710.24" gradientTransform="matrix(0.81, 0.59, 0.59, -0.81, -1162.07, 6775.67)" xlink:href="#linear-gradient"/><linearGradient id="linear-gradient-90" x1="152.43" y1="3710.19" x2="553.46" y2="3710.19" gradientTransform="matrix(0.81, 0.59, 0.59, -0.81, -1162.07, 6775.67)" xlink:href="#linear-gradient"/><linearGradient id="linear-gradient-91" x1="173.95" y1="3710.24" x2="532.22" y2="3710.24" gradientTransform="matrix(0.81, 0.59, 0.59, -0.81, -1162.07, 6775.67)" xlink:href="#linear-gradient"/><linearGradient id="linear-gradient-92" x1="193.62" y1="3710.25" x2="512.76" y2="3710.25" gradientTransform="matrix(0.81, 0.59, 0.59, -0.81, -1162.07, 6775.67)" xlink:href="#linear-gradient"/><linearGradient id="linear-gradient-93" x1="-346.37" y1="3057.22" x2="97.47" y2="3057.22" gradientTransform="matrix(0.99, -0.14, -0.14, -0.99, 2629.65, 6666.95)" xlink:href="#linear-gradient"/><linearGradient id="linear-gradient-94" x1="-325.11" y1="3057.17" x2="75.92" y2="3057.17" gradientTransform="matrix(0.99, -0.14, -0.14, -0.99, 2629.65, 6666.95)" xlink:href="#linear-gradient"/><linearGradient id="linear-gradient-95" x1="-303.59" y1="3057.22" x2="54.68" y2="3057.22" gradientTransform="matrix(0.99, -0.14, -0.14, -0.99, 2629.65, 6666.95)" xlink:href="#linear-gradient"/><linearGradient id="linear-gradient-96" x1="-283.92" y1="3057.23" x2="35.22" y2="3057.23" gradientTransform="matrix(0.99, -0.14, -0.14, -0.99, 2629.65, 6666.95)" xlink:href="#linear-gradient"/><linearGradient id="linear-gradient-97" x1="1472.06" y1="4481.3" x2="1596.51" y2="4481.3" gradientTransform="matrix(1, 0, 0, 1, 0, 0)" xlink:href="#linear-gradient"/><linearGradient id="linear-gradient-98" x1="1492.15" y1="4486.82" x2="1593.16" y2="4486.82" gradientTransform="matrix(1, 0, 0, 1, 0, 0)" xlink:href="#linear-gradient"/><linearGradient id="linear-gradient-99" x1="1513.88" y1="4492.37" x2="1587.46" y2="4492.37" gradientTransform="matrix(1, 0, 0, 1, 0, 0)" xlink:href="#linear-gradient"/><linearGradient id="linear-gradient-100" x1="1537.41" y1="4497.45" x2="1577.92" y2="4497.45" gradientTransform="matrix(1, 0, 0, 1, 0, 0)" xlink:href="#linear-gradient"/><linearGradient id="linear-gradient-101" x1="-866.21" y1="3437.36" x2="-422.37" y2="3437.36" gradientTransform="matrix(1, 0.05, 0.05, -1, 2812.18, 7632.21)" xlink:href="#linear-gradient"/><linearGradient id="linear-gradient-102" x1="-844.94" y1="3437.31" x2="-443.91" y2="3437.31" gradientTransform="matrix(1, 0.05, 0.05, -1, 2812.18, 7632.21)" xlink:href="#linear-gradient"/><linearGradient id="linear-gradient-103" x1="-823.42" y1="3437.36" x2="-465.15" y2="3437.36" gradientTransform="matrix(1, 0.05, 0.05, -1, 2812.18, 7632.21)" xlink:href="#linear-gradient"/><linearGradient id="linear-gradient-104" x1="-803.76" y1="3437.37" x2="-484.62" y2="3437.37" gradientTransform="matrix(1, 0.05, 0.05, -1, 2812.18, 7632.21)" xlink:href="#linear-gradient"/></defs><title>blogbg</title><g id="Layer_2" data-name="Layer 2"><g id="Layer_1-2" data-name="Layer 1"><rect width="2560" height="4500"/><g class="cls-1"><path class="cls-2" d="M75.93,297.59c-1.87,16.89-7.78,91.9,42.61,140.65,29.17,28.22,42.3,13.87,81.83,44.18,52.61,40.35,44.1,77.08,84,96,37.8,17.89,89.38,5.66,121.84-22.23,56.81-48.8,55-145.42,16.44-178.57-25.28-21.77-71.77-20.82-111.7-20-34.58.7-40.44,6.34-56.87,0-32.11-12.3-29.58-41.48-67.89-80.58-8-8.16-54.39-55.52-84-42.93C82,242.65,78.43,275.11,75.93,297.59Z"/><path class="cls-3" d="M93.24,306.63c-1.69,15.26-7,83,38.5,127.08,26.35,25.5,38.22,12.53,73.94,39.92,47.54,36.45,39.84,69.65,75.86,86.7,34.15,16.17,80.75,5.11,110.09-20.08,51.32-44.1,49.66-131.4,14.85-161.35-22.85-19.67-64.85-18.81-100.92-18.08-31.25.64-36.55,5.73-51.39,0-29-11.12-26.72-37.48-61.34-72.81-7.23-7.38-49.15-50.16-75.9-38.79C98.76,257,95.5,286.31,93.24,306.63Z"/><path class="cls-4" d="M110.8,315.8c-1.52,13.63-6.29,74.18,34.39,113.53,23.54,22.78,34.14,11.19,66.05,35.66,42.47,32.57,35.6,62.22,67.77,77.46,30.51,14.44,72.15,4.57,98.36-18,45.85-39.39,44.36-117.38,13.27-144.14-20.42-17.57-57.94-16.81-90.17-16.15-27.91.57-32.65,5.12-45.9,0-25.93-9.94-23.88-33.49-54.81-65.05-6.45-6.59-43.91-44.82-67.81-34.65C115.73,271.45,112.81,297.65,110.8,315.8Z"/><path class="cls-5" d="M126.81,324.19c-1.35,12.14-5.6,66.08,30.63,101.13,21,20.29,30.42,10,58.84,31.77,37.84,29,31.71,55.43,60.37,69,27.18,12.87,64.27,4.07,87.61-16,40.85-35.09,39.53-104.56,11.83-128.4-18.19-15.65-51.61-15-80.32-14.38-24.87.5-29.08,4.55-40.89,0-23.1-8.85-21.27-29.83-48.82-57.94-5.75-5.88-39.11-39.92-60.4-30.87C131.2,284.68,128.61,308,126.81,324.19Z"/></g><g class="cls-1"><path class="cls-6" d="M1076.93,0c-1.93,32.42-14.38,66.14-40,89.94-31.37,29.12-82.44,43.33-120.9,26.89-40.55-17.32-33.46-54.36-87.58-92.65C802.23,5.64,787.69,5.21,772.58,0Z"/><path class="cls-7" d="M1057.37,0c-3,27.19-14.19,54.74-35.6,74.61-28.35,26.31-74.49,39.15-109.24,24.3-36.64-15.66-30.23-49.12-79.14-83.72C821.91,7.06,812.91,2.79,805.12,0Z"/><path class="cls-8" d="M1037.71,0c-3.71,21.88-13.57,43.43-30.8,59.43-25.32,23.5-66.55,35-97.59,21.71-32.74-14-27-43.89-70.7-74.8C835.1,3.85,831.84,1.77,828.8,0Z"/><path class="cls-9" d="M1019.17,0c-4.11,16.89-12.5,33.1-25.9,45.54C970.71,66.47,934,76.69,906.33,64.88c-28.54-12.2-24.25-38-60.57-64.88Z"/></g><g class="cls-1"><path class="cls-10" d="M378,948.82c15.08,7.82,83,40.28,146.56,10.77,36.81-17.08,28.14-34.49,70.63-60.49,56.56-34.61,87.78-13.46,119.71-43.88,30.29-28.84,37.4-81.38,23-121.69C712.79,663,622,630,577.17,654c-29.39,15.78-45.21,59.5-58.8,97.05-11.77,32.53-8.61,40-20.39,53.09-23,25.55-49.34,12.7-99.59,34.4-10.5,4.54-71.36,30.82-70.25,63C328.9,923.38,357.89,938.41,378,948.82Z"/><path class="cls-11" d="M392.63,935.92c13.63,7.06,75,36.39,132.43,9.73,33.26-15.44,25.42-31.17,63.81-54.66C640,859.72,668.19,878.82,697,851.34c27.36-26.06,33.79-73.53,20.81-110-22.71-63.74-104.78-93.56-145.24-71.84-26.56,14.26-40.85,53.77-53.13,87.7-10.63,29.39-7.78,36.16-18.42,48-20.8,23.09-44.58,11.48-90,31.09-9.48,4.1-64.47,27.85-63.47,56.9C348.29,912.93,374.48,926.51,392.63,935.92Z"/><path class="cls-12" d="M407.49,922.83c12.18,6.31,67,32.51,118.31,8.69,29.71-13.79,22.71-27.84,57-48.83,45.65-27.93,70.86-10.87,96.63-35.42C703.89,824,709.63,781.58,698,749c-20.29-56.94-93.61-83.58-129.76-64.17-23.73,12.73-36.49,48-47.46,78.34-9.5,26.26-7,32.31-16.46,42.85-18.59,20.63-39.83,10.26-80.39,27.78-8.48,3.66-57.6,24.87-56.71,50.83C367.87,902.29,391.28,914.42,407.49,922.83Z"/><path class="cls-13" d="M421.08,910.9c10.84,5.62,59.66,29,105.38,7.75,26.47-12.29,20.24-24.81,50.79-43.5,40.67-24.89,63.12-9.68,86.08-31.55,21.77-20.74,26.89-58.52,16.56-87.51-18.07-50.72-83.38-74.45-115.58-57.16-21.14,11.34-32.51,42.78-42.28,69.78-8.47,23.39-6.2,28.78-14.66,38.18-16.56,18.37-35.48,9.13-71.62,24.74-7.54,3.26-51.3,22.16-50.51,45.28C385.79,892.61,406.63,903.41,421.08,910.9Z"/></g><g class="cls-1"><path class="cls-14" d="M935.13,683.63c16.88,2,91.87,8.16,140.82-42,28.34-29.06,14-42.25,44.51-81.66,40.56-52.45,77.26-43.79,96.29-83.57,18-37.72,6-89.35-21.73-121.93-48.57-57-145.2-55.55-178.51-17.16C994.65,362.48,995.4,409,996.05,448.9c.57,34.58,6.18,40.47-.18,56.87-12.44,32.06-41.6,29.41-80.85,67.56-8.2,8-55.74,54.18-43.27,83.84C880.22,677.3,912.66,681,935.13,683.63Z"/><path class="cls-15" d="M944.24,666.36c15.25,1.76,83,7.37,127.23-38,25.61-26.25,12.69-38.17,40.22-73.78,36.65-47.39,69.81-39.57,87-75.51,16.3-34.08,5.44-80.74-19.64-110.17-43.89-51.5-131.2-50.19-161.29-15.5C998,376.18,998.7,418.19,999.29,454.27c.5,31.25,5.58,36.56-.17,51.38-11.24,29-37.59,26.58-73,61.05-7.41,7.2-50.37,48.95-39.1,75.75C894.62,660.64,923.93,664,944.24,666.36Z"/><path class="cls-16" d="M953.48,648.85c13.62,1.57,74.15,6.58,113.67-33.94,22.87-23.45,11.33-34.1,35.92-65.91,32.74-42.34,62.37-35.35,77.73-67.46,14.57-30.45,4.86-72.13-17.54-98.42-39.21-46-117.21-44.84-144.09-13.85-17.65,20.34-17,57.86-16.52,90.1.46,27.91,5,32.66-.14,45.9-10,25.89-33.58,23.74-65.27,54.54-6.62,6.43-45,43.73-34.93,67.67C909.15,643.74,935.34,646.76,953.48,648.85Z"/><path class="cls-17" d="M961.94,632.87c12.13,1.4,66,5.86,101.25-30.23,20.37-20.89,10.09-30.38,32-58.71,29.17-37.72,55.56-31.49,69.24-60.09,13-27.13,4.33-64.25-15.63-87.68-34.92-41-104.4-39.94-128.35-12.34-15.72,18.12-15.18,51.55-14.71,80.26.41,24.87,4.44,29.1-.13,40.89-8.94,23.06-29.91,21.15-58.14,48.59-5.89,5.73-40.08,39-31.11,60.28C922.45,628.32,945.77,631,961.94,632.87Z"/></g><g class="cls-1"><path class="cls-18" d="M2075.14,0c-19.24,10.07-42.79,18.11-69,48.22-32.75,37.53-19.26,51.55-49.26,78.88-51.83,47.21-126.32,36.58-143,33.64-22.29-3.91-54.45-9.56-61.71-30.17-10.7-30.34,39.49-73.66,48.14-81.13,34.4-29.68,60.2-31.72,76.15-49.44Z"/><path class="cls-19" d="M2057.69,0c-16.94,8.59-37.37,16.38-60,42.37-29.59,33.91-17.4,46.57-44.51,71.27-46.82,42.65-114.13,33.05-129.25,30.4-20.13-3.54-49.2-8.64-55.76-27.26-9.66-27.42,35.68-66.55,43.5-73.31,30.29-26.13,53.2-28.55,67.68-43.47Z"/><path class="cls-20" d="M2039.87,0c-14.49,7.13-31.63,14.64-50.49,36.27-26.43,30.3-15.54,41.61-39.76,63.67-41.84,38.11-102,29.53-115.48,27.16-18-3.16-44-7.72-49.81-24.35-8.63-24.5,31.88-59.46,38.87-65.49C1849.15,14.86,1869,12,1882,0Z"/><path class="cls-21" d="M2023.57,0c-12.2,6-26.33,13.06-41.76,30.74-23.54,27-13.84,37.06-35.42,56.71-37.26,34-90.83,26.31-102.86,24.2-16-2.82-39.15-6.88-44.37-21.69-7.69-21.82,28.39-53,34.62-58.34,21.94-18.94,39-22.23,50.59-31.62Z"/></g><g class="cls-1"><path class="cls-22" d="M248.06,2085c-6.88,42.24-38.47,84.81-78.91,95.45-42.65,11.22-59.79-22.36-126-19.36-20.74.94-33,4.87-43.12,8.92V2032.17c1.26-.33,2.54-.73,3.84-1.18,16.61-5.76,17.47-13.85,43.48-36.65,30-26.33,65-57,98.35-56.61C196.49,1938.29,260.11,2011,248.06,2085Z"/><path class="cls-23" d="M226.7,2082.14c-6.22,38.17-34.77,76.64-71.31,86.25-38.53,10.14-54-20.21-113.87-17.49C21,2151.83,9.7,2156,0,2160V2035.09a51.63,51.63,0,0,0,6-1.7c15-5.2,15.79-12.51,39.29-33.12,27.13-23.78,58.72-51.48,88.86-51.15C180.1,1949.63,237.58,2015.36,226.7,2082.14Z"/><path class="cls-24" d="M205.65,2079.28c-5.56,34.1-31.06,68.47-63.7,77.06-34.43,9-48.26-18.06-101.73-15.63-20.56.93-30.77,5.5-40.22,9.43V2037.79a43.37,43.37,0,0,0,8.51-2.06c13.41-4.65,14.1-11.18,35.1-29.59,24.24-21.25,52.46-46,79.39-45.7C164,1960.9,215.37,2019.62,205.65,2079.28Z"/><path class="cls-25" d="M186.35,2076.7c-4.95,30.37-27.66,61-56.74,68.64-30.67,8.06-43-16.09-90.62-13.93-20.62.94-29.55,6-39,9.69V2040a37,37,0,0,0,10.74-2.11c12-4.14,12.57-10,31.27-26.36,21.59-18.93,46.73-41,70.72-40.7C149.27,1971.25,195,2023.55,186.35,2076.7Z"/></g><g class="cls-1"><path class="cls-26" d="M689.79,1278.73c-11.27,12.71-59.35,70.59-46.3,139.47,7.56,39.88,26.56,35.73,41.38,83.29,19.72,63.3-8.42,88.4,13.26,126.81,20.56,36.42,69.75,56.16,112.36,52.1C885,1673.29,939.25,1593.29,926.9,1544c-8.11-32.36-46.63-58.4-79.72-80.76-28.66-19.37-36.7-18.14-46.49-32.76-19.14-28.57-.24-50.94-9-105-1.83-11.29-12.43-76.73-43.88-83.52C726.47,1237.36,704.8,1261.8,689.79,1278.73Z"/><path class="cls-27" d="M698.72,1296.09c-10.18,11.49-53.63,63.79-41.83,126,6.83,36,24,32.28,37.38,75.25,17.82,57.2-7.6,79.88,12,114.58,18.58,32.91,63,50.75,101.53,47.08,67.36-6.42,116.34-78.7,105.18-123.25-7.33-29.24-42.14-52.76-72-73-25.9-17.5-33.16-16.39-42-29.6-17.3-25.82-.23-46-8.13-94.85-1.65-10.2-11.23-69.33-39.65-75.47C731.86,1258.72,712.29,1280.8,698.72,1296.09Z"/><path class="cls-28" d="M707.78,1313.7c-9.1,10.27-47.91,57-37.38,112.59,6.1,32.19,21.44,28.83,33.4,67.22,15.92,51.1-6.8,71.37,10.7,102.37,16.6,29.4,56.31,45.34,90.7,42.06,60.18-5.74,103.94-70.32,94-110.11-6.55-26.13-37.64-47.14-64.35-65.19C811.69,1447,805.2,1448,797.3,1436.19c-15.46-23.06-.2-41.12-7.27-84.74-1.47-9.11-10-61.93-35.41-67.41C737.38,1280.31,719.89,1300,707.78,1313.7Z"/><path class="cls-29" d="M716,1329.8c-8.11,9.14-42.68,50.75-33.29,100.28,5.43,28.68,19.1,25.69,29.75,59.89,14.18,45.52-6.06,63.57,9.53,91.18,14.78,26.19,50.16,40.39,80.79,37.47,53.61-5.12,92.59-62.64,83.71-98.09-5.83-23.27-33.53-42-57.32-58.07-20.61-13.92-26.39-13-33.43-23.55-13.76-20.55-.18-36.63-6.47-75.49-1.31-8.12-8.93-55.17-31.55-60.05C742.39,1300.05,726.81,1317.62,716,1329.8Z"/></g><g class="cls-1"><path class="cls-30" d="M1410.48,1123.05c16.21,5.09,88.69,25.32,146.22-14.75,33.3-23.19,21.75-38.84,59.1-71.8,49.71-43.87,84.12-28.45,110.31-63.93,24.84-33.65,22.75-86.62,1.63-123.84-37-65.14-132.13-81.92-172.08-50.49-26.22,20.63-34.23,66.42-41.12,105.76-6,34.07-1.56,40.91-10.89,55.82-18.26,29.15-46.4,21-92.14,51.12-9.55,6.28-65,42.7-58.29,74.18C1357.74,1106.49,1388.9,1116.27,1410.48,1123.05Z"/><path class="cls-31" d="M1422.68,1107.81c14.65,4.6,80.13,22.87,132.11-13.33,30.09-21,19.65-35.1,53.4-64.88,44.92-39.64,76-25.7,99.67-57.76,22.44-30.4,20.56-78.27,1.48-111.9-33.4-58.85-119.39-74-155.48-45.62-23.69,18.64-30.94,60-37.16,95.56-5.38,30.79-1.41,37-9.84,50.44-16.5,26.33-41.92,19-83.25,46.19-8.63,5.67-58.68,38.58-52.67,67C1375,1092.84,1403.18,1101.68,1422.68,1107.81Z"/><path class="cls-32" d="M1435.05,1092.35c13.09,4.11,71.59,20.43,118-11.91,26.88-18.72,17.55-31.35,47.7-58,40.13-35.41,67.91-23,89-51.61,20.05-27.16,18.36-69.92,1.31-100-29.83-52.58-106.65-66.12-138.9-40.76-21.16,16.65-27.63,53.62-33.19,85.38-4.81,27.5-1.26,33-8.79,45.05-14.74,23.53-37.46,17-74.38,41.27-7.71,5.07-52.42,34.46-47.05,59.87C1392.48,1079,1417.63,1086.87,1435.05,1092.35Z"/><path class="cls-33" d="M1446.37,1078.25c11.66,3.66,63.77,18.2,105.13-10.61,24-16.68,15.64-27.93,42.5-51.63,35.75-31.54,60.49-20.46,79.32-46,17.86-24.19,16.36-62.28,1.17-89-26.57-46.83-95-58.9-123.73-36.3-18.85,14.83-24.62,47.76-29.57,76-4.28,24.5-1.12,29.41-7.83,40.13-13.13,21-33.36,15.14-66.25,36.76-6.87,4.52-46.7,30.7-41.91,53.34C1408.45,1066.34,1430.85,1073.37,1446.37,1078.25Z"/></g><g class="cls-1"><path class="cls-34" d="M2058.68,310.56c-13.26,10.62-70.44,59.53-69.24,129.62.7,40.58,20.14,39.71,26.69,89.09,8.72,65.73-23.26,85.71-8.4,127.23,14.1,39.37,59.25,67.16,101.92,70.36,74.68,5.62,141.65-64.05,137.82-114.73-2.51-33.27-36.07-65.45-64.9-93.09-25-23.94-33.1-24.1-40.27-40.15-14-31.41,8.38-50.26,8.9-105,.11-11.43.74-77.72-29.11-89.73C2101.83,276,2076.34,296.42,2058.68,310.56Z"/><path class="cls-35" d="M2064.54,329.19c-12,9.59-63.65,53.78-62.55,117.12.63,36.66,18.18,35.87,24.1,80.49,7.88,59.39-21,77.44-7.58,115,12.74,35.58,53.53,60.69,92.09,63.58,67.47,5.07,128-57.88,124.52-103.67-2.27-30.06-32.59-59.13-58.64-84.1-22.56-21.63-29.9-21.77-36.39-36.28-12.67-28.38,7.58-45.41,8-94.87.1-10.33.67-70.22-26.3-81.08C2103.53,298,2080.5,316.41,2064.54,329.19Z"/><path class="cls-36" d="M2070.49,348.07c-10.71,8.58-56.87,48.06-55.89,104.64.56,32.75,16.25,32.05,21.54,71.91,7,53-18.78,69.18-6.78,102.7,11.38,31.78,47.82,54.21,82.27,56.8,60.28,4.53,114.34-51.71,111.25-92.62-2-26.85-29.12-52.83-52.39-75.14C2150.34,497,2143.77,496.91,2138,484c-11.32-25.35,6.77-40.57,7.19-84.75.09-9.23.6-62.74-23.5-72.44C2105.31,320.18,2084.74,336.66,2070.49,348.07Z"/><path class="cls-37" d="M2075.89,365.33c-9.54,7.64-50.66,42.8-49.79,93.2.5,29.18,14.48,28.55,19.19,64.06,6.27,47.26-16.73,61.63-6,91.48,10.14,28.31,42.6,48.29,73.29,50.6,53.69,4,101.85-46.06,99.09-82.5-1.8-23.92-25.94-47.06-46.66-66.94-17.95-17.21-23.8-17.32-29-28.87-10.09-22.58,6-36.13,6.4-75.49.08-8.22.53-55.89-20.93-64.53C2106.91,340.48,2088.58,355.16,2075.89,365.33Z"/></g><g class="cls-1"><path class="cls-38" d="M235.91,2418.82c-6.73,15.6-34.3,85.62-.36,147,19.64,35.51,36.4,25.63,65.34,66.17,38.53,54,19.65,86.6,52.25,116.3,30.92,28.17,83.82,31.54,123,14.36,68.59-30.07,95.06-123,67.91-166-17.82-28.21-62.55-40.89-101-51.79-33.28-9.43-40.53-5.75-54.4-16.57-27.12-21.16-16.17-48.32-41.38-96.91-5.26-10.15-35.79-69-67.79-65.61C257.81,2368.06,244.87,2398.05,235.91,2418.82Z"/><path class="cls-39" d="M249.82,2432.52c-6.08,14.1-31,77.36-.33,132.79,17.76,32.08,32.89,23.15,59,59.78,34.81,48.76,17.76,78.25,47.21,105.09,27.94,25.44,75.74,28.49,111.16,13,62-27.17,85.89-111.14,61.36-150-16.1-25.49-56.52-37-91.23-46.79-30.07-8.52-36.63-5.2-49.16-15-24.5-19.11-14.6-43.65-37.38-87.56-4.76-9.17-32.34-62.33-61.25-59.28C269.61,2386.66,257.92,2413.75,249.82,2432.52Z"/><path class="cls-40" d="M263.93,2446.42c-5.44,12.59-27.69,69.11-.3,118.62,15.86,28.67,29.39,20.69,52.75,53.42,31.1,43.55,15.86,69.91,42.18,93.88,24.95,22.73,67.66,25.45,99.3,11.58,55.36-24.26,76.74-99.29,54.82-134-14.39-22.76-50.49-33-81.51-41.8-26.86-7.61-32.72-4.64-43.91-13.38-21.89-17.07-13.05-39-33.4-78.22-4.25-8.19-28.89-55.69-54.72-53C281.6,2405.45,271.16,2429.65,263.93,2446.42Z"/><path class="cls-41" d="M276.79,2459.13c-4.84,11.21-24.67,61.56-.26,105.67,14.12,25.53,26.17,18.42,47,47.57,27.71,38.8,14.13,62.28,37.57,83.63,22.23,20.25,60.27,22.68,88.46,10.32,49.32-21.62,68.36-88.44,48.83-119.34-12.81-20.28-45-29.4-72.6-37.23-23.93-6.78-29.15-4.14-39.12-11.92-19.5-15.21-11.62-34.74-29.75-69.68-3.79-7.3-25.74-49.61-48.74-47.17C292.54,2422.63,283.23,2444.19,276.79,2459.13Z"/></g><g class="cls-1"><path class="cls-42" d="M797.72,1937c-1,17-3.07,92.18,49.74,138.29,30.57,26.69,43,11.69,84,39.94,54.61,37.61,48,74.73,88.76,91.54,38.66,15.94,89.55,1.09,120.54-28.43,54.24-51.63,47.46-148,7.3-179.18-26.37-20.44-72.74-17.12-112.58-14.27-34.5,2.47-40.07,8.4-56.79,3-32.7-10.65-31.66-39.91-71.92-77-8.41-7.75-57.17-52.67-86.09-38.58C801,1881.77,799.07,1914.37,797.72,1937Z"/><path class="cls-43" d="M815.47,1945.1c-.91,15.32-2.78,83.28,44.94,124.94,27.63,24.12,38.81,10.56,75.88,36.09,49.34,34,43.36,67.52,80.2,82.71,34.93,14.41,80.91,1,108.92-25.68,49-46.66,42.88-133.76,6.59-161.9-23.83-18.47-65.73-15.47-101.72-12.9-31.17,2.24-36.21,7.59-51.32,2.67-29.54-9.62-28.6-36.06-65-69.58-7.6-7-51.65-47.58-77.79-34.86C818.45,1895.24,816.69,1924.69,815.47,1945.1Z"/><path class="cls-44" d="M833.47,1953.35c-.82,13.69-2.48,74.41,40.15,111.63,24.68,21.54,34.67,9.43,67.79,32.24,44.08,30.35,38.73,60.32,71.64,73.89,31.21,12.87,72.29.88,97.31-23,43.78-41.68,38.31-119.49,5.89-144.63-21.29-16.5-58.72-13.82-90.88-11.52-27.85,2-32.34,6.78-45.84,2.38-26.4-8.6-25.56-32.22-58-62.16-6.79-6.25-46.15-42.51-69.5-31.14C836.13,1908.81,834.56,1935.12,833.47,1953.35Z"/><path class="cls-45" d="M849.89,1960.92c-.73,12.19-2.21,66.28,35.76,99.43,22,19.19,30.89,8.41,60.39,28.72,39.27,27,34.5,53.73,63.82,65.82,27.8,11.46,64.39.78,86.68-20.44,39-37.13,34.12-106.45,5.24-128.84-19-14.7-52.3-12.31-80.94-10.26-24.81,1.78-28.82,6-40.84,2.12-23.52-7.65-22.77-28.7-51.71-55.37-6-5.57-41.11-37.87-61.91-27.74C852.26,1921.24,850.86,1944.68,849.89,1960.92Z"/></g><g class="cls-1"><path class="cls-46" d="M1563.91,1624.85c11.35,12.63,63.42,67,133.33,61.78,40.48-3,38.5-22.35,87.43-31.68,65.13-12.43,86.89,18.37,127.5,1.18,38.51-16.31,63.7-63,64.49-105.75,1.37-74.87-72-137.79-122.36-131.1-33.07,4.4-63.3,39.73-89.26,70.07-22.49,26.28-22.19,34.41-37.81,42.48-30.56,15.79-50.65-5.52-105.33-2.94-11.42.54-77.64,3.66-88,34.14C1527,1583.72,1548.78,1608,1563.91,1624.85Z"/><path class="cls-47" d="M1582.17,1617.94c10.26,11.42,57.3,60.5,120.48,55.82,36.57-2.7,34.78-20.19,79-28.62,58.85-11.23,78.51,16.6,115.2,1.06,34.8-14.73,57.56-56.88,58.27-95.54,1.24-67.66-65-124.5-110.56-118.46-29.88,4-57.19,35.9-80.65,63.31-20.32,23.75-20,31.09-34.16,38.39-27.61,14.26-45.76-5-95.17-2.66-10.32.48-70.15,3.31-79.46,30.85C1548.79,1580.78,1568.51,1602.73,1582.17,1617.94Z"/><path class="cls-48" d="M1600.69,1610.94c9.17,10.2,51.2,54,107.63,49.87,32.67-2.42,31.08-18,70.58-25.58,52.57-10,70.13,14.83,102.91,1,31.09-13.17,51.42-50.82,52.06-85.36,1.11-60.44-58.1-111.23-98.77-105.83-26.7,3.55-51.1,32.07-72.06,56.56-18.15,21.22-17.9,27.78-30.51,34.29-24.67,12.75-40.89-4.45-85-2.37-9.22.43-62.68,3-71,27.56C1570.87,1577.74,1588.49,1597.35,1600.69,1610.94Z"/><path class="cls-49" d="M1617.61,1604.57c8.17,9.09,45.61,48.15,95.88,44.42,29.1-2.15,27.68-16.06,62.87-22.78,46.83-8.93,62.47,13.21,91.67.85,27.69-11.72,45.8-45.27,46.37-76,1-53.84-51.76-99.08-88-94.27-23.78,3.16-45.52,28.56-64.19,50.38-16.17,18.9-16,24.74-27.18,30.55-22,11.35-36.42-4-75.74-2.12-8.21.39-55.82,2.63-63.23,24.55C1591,1575,1606.74,1592.47,1617.61,1604.57Z"/></g><g class="cls-1"><path class="cls-50" d="M2560,1226.9v225.18c-27.51,5-56.48,1.34-78.33-13.27-36.65-24.52-22.84-59.61-69-107.24-34.65-35.79-49.75-23.52-74.46-55.72-42.68-55.62-25.83-128.95-21.49-145.38,5.78-21.87,14.11-53.45,35.25-59,31.14-8.11,70.08,45.54,76.8,54.8,32.15,44.3,25.36,72.78,55.32,89.67,15.32,8.64,21.95,3.93,56.26,8.31C2546.8,1225.12,2553.38,1226,2560,1226.9Z"/><path class="cls-51" d="M2560,1230.22V1430.9c-27,6.72-56.66,4.22-78.44-10.35-33.12-22.16-20.64-53.86-62.31-96.9-31.31-32.33-44.95-21.25-67.27-50.34-38.57-50.25-23.34-116.51-19.42-131.36,5.21-19.76,12.75-48.29,31.85-53.26,28.13-7.33,63.31,41.15,69.38,49.51,29.06,40,22.92,65.77,50,81,13.84,7.8,19.83,3.54,50.83,7.5C2542.87,1227.79,2551.45,1228.88,2560,1230.22Z"/><path class="cls-52" d="M2560,1233.84v175.49c-26.19,8.78-56.61,7.68-78.31-6.84-29.59-19.79-18.44-48.12-55.67-86.57-28-28.89-40.15-19-60.1-45-34.45-44.9-20.85-104.09-17.35-117.35,4.66-17.66,11.39-43.15,28.46-47.59,25.13-6.54,56.56,36.76,62,44.23,26,35.77,20.48,58.76,44.66,72.39,12.37,7,17.72,3.17,45.41,6.7C2539.13,1230.62,2549.69,1232,2560,1233.84Z"/><path class="cls-53" d="M2560,1237.44v151.31c-25,11.18-56.52,11.75-78.24-2.79-26.36-17.63-16.43-42.86-49.59-77.11-24.91-25.74-35.77-16.92-53.54-40.07-30.69-40-18.57-92.72-15.45-104.53,4.15-15.73,10.14-38.43,25.35-42.39,22.38-5.83,50.38,32.75,55.21,39.4,23.12,31.86,18.24,52.34,39.78,64.48,11,6.21,15.79,2.83,40.46,6C2535.71,1233.22,2548.23,1234.81,2560,1237.44Z"/></g><g class="cls-1"><path class="cls-54" d="M272.16,3387c-13.21,42.07-50.77,38.7-83.49,96.37-24.58,43.32-8.56,54.36-32.49,87.13-41.35,56.62-116.46,61.1-133.45,61.56-6.93.19-14.81.41-22.73.07V3510.82c27.89-29.32,50.91-34.25,57.67-63.4,4-17.13-2.42-22.16-7.88-56.32-6.3-39.43-13.63-85.35,4.44-113.39,27.54-42.72,123-57.84,179.14-8.29C265.46,3297.73,284.68,3347.14,272.16,3387Z"/><path class="cls-55" d="M254.67,3392.29c-11.94,38-45.87,35-75.43,87.07-22.22,39.15-7.74,49.12-29.37,78.73-37.35,51.16-105.22,55.2-120.57,55.62-8.84.24-19.37.53-29.3-.6v-99c29.05-35.71,54.07-37.9,60.87-67.23,3.59-15.48-2.19-20-7.12-50.89-5.69-35.63-12.32-77.12,4-102.45,24.88-38.6,111.12-52.27,161.86-7.5C248.62,3311.6,266,3356.24,254.67,3392.29Z"/><path class="cls-56" d="M237.3,3397.25c-10.66,34-41,31.24-67.39,77.79-19.84,35-6.91,43.88-26.23,70.33-33.37,45.71-94,49.32-107.71,49.7-10.91.29-24.7.67-36-2.3v-73.64c3.27-4.7,6-8.22,7.28-9.9,27-35,50.61-36.19,56.88-63.24,3.21-13.83-1.95-17.89-6.35-45.46-5.09-31.83-11-68.89,3.58-91.53,22.23-34.48,99.28-46.69,144.6-6.7C231.9,3325.16,247.41,3365,237.3,3397.25Z"/><path class="cls-57" d="M221.42,3401.84c-9.49,30.25-36.5,27.83-60,69.29-17.67,31.16-6.15,39.09-23.36,62.66-29.73,40.71-83.74,43.92-96,44.26-13.33.36-31.5.86-42.07-6.39v-44.88a179.6,179.6,0,0,1,16.52-25.19c24.06-31.16,45.09-32.24,50.67-56.33,2.86-12.32-1.74-15.94-5.66-40.5-4.53-28.36-9.8-61.37,3.19-81.53,19.8-30.72,88.43-41.6,128.81-6C216.61,3337.62,230.43,3373.15,221.42,3401.84Z"/></g><g class="cls-1"><path class="cls-58" d="M824.72,3165.54c16.65,3.38,90.84,16,143.9-29.85,30.71-26.53,17.6-40.89,51.32-77.55,44.9-48.79,80.72-37,103.09-75,21.21-36,13.63-88.51-11.24-123.34-43.52-61-139.91-67.76-176.38-32.36-23.94,23.24-27.16,69.63-29.93,109.47-2.39,34.5,2.7,40.85-5,56.64-15.13,30.89-44,25.75-86.33,60.41-8.85,7.24-60.17,49.21-50.28,79.83C770.55,3154.53,802.55,3161,824.72,3165.54Z"/><path class="cls-59" d="M835.27,3149.1c15.05,3.06,82.08,14.44,130-27,27.75-24,15.9-36.95,46.37-70.07,40.57-44.09,72.94-33.46,93.14-67.8,19.17-32.57,12.32-80-10.15-111.45-39.32-55.06-126.42-61.22-159.37-29.23-21.63,21-24.54,62.91-27,98.9-2.17,31.18,2.43,36.91-4.56,51.18-13.67,27.91-39.72,23.27-78,54.58-8,6.54-54.36,44.47-45.42,72.13C786.32,3139.16,815.24,3145,835.27,3149.1Z"/><path class="cls-60" d="M846,3132.44c13.44,2.73,73.33,12.9,116.16-24.09,24.79-21.41,14.2-33,41.43-62.6,36.23-39.38,65.15-29.89,83.21-60.57,17.12-29.09,11-71.45-9.07-99.56-35.13-49.2-112.94-54.69-142.38-26.12-19.33,18.76-21.92,56.2-24.16,88.36-1.93,27.85,2.18,33-4.07,45.72-12.21,24.94-35.48,20.79-69.68,48.77-7.15,5.84-48.57,39.72-40.59,64.43C802.24,3123.56,828.08,3128.81,846,3132.44Z"/><path class="cls-61" d="M855.77,3117.24c12,2.44,65.31,11.49,103.46-21.46,22.09-19.07,12.66-29.4,36.91-55.76,32.28-35.08,58-26.62,74.12-53.95,15.25-25.92,9.81-63.65-8.08-88.69-31.29-43.82-100.6-48.72-126.83-23.27-17.21,16.71-19.52,50.07-21.51,78.71-1.72,24.81,1.93,29.38-3.63,40.73-10.88,22.21-31.61,18.52-62.08,43.44-6.36,5.2-43.26,35.38-36.15,57.4C816.81,3109.33,839.82,3114,855.77,3117.24Z"/></g><g class="cls-1"><path class="cls-62" d="M1247.51,2483.93c8.22,14.87,46.73,79.52,116,90.21,40.11,6.19,42.55-13.11,92.32-11.2,66.26,2.55,80.53,37.46,124,29.85,41.2-7.22,76.24-47,86.63-88.52,18.19-72.65-39.12-150.46-89.71-155.28-33.22-3.16-70.62,24.46-102.75,48.19-27.82,20.54-29.35,28.53-46.39,32.88-33.33,8.5-48.11-16.78-102-26.57-11.25-2-76.47-13.91-93.37,13.47C1220.76,2435.55,1236.57,2464.13,1247.51,2483.93Z"/><path class="cls-63" d="M1266.86,2481.31c7.43,13.44,42.22,71.85,104.82,81.51,36.24,5.59,38.44-11.84,83.42-10.12,59.86,2.31,72.75,33.84,112,27,37.22-6.53,68.88-42.47,78.27-80,16.44-65.64-35.34-136-81.06-140.3-30-2.86-63.8,22.1-92.83,43.54-25.14,18.56-26.52,25.78-41.92,29.71-30.11,7.68-43.47-15.16-92.13-24-10.16-1.85-69.1-12.56-84.37,12.17C1242.7,2437.6,1257,2463.42,1266.86,2481.31Z"/><path class="cls-64" d="M1286.48,2478.66c6.64,12,37.72,64.18,93.65,72.82,32.38,5,34.34-10.59,74.52-9,53.48,2,65,30.23,100.06,24.09,33.25-5.83,61.54-37.94,69.93-71.46,14.68-58.64-31.58-121.45-72.42-125.33-26.81-2.56-57,19.74-82.93,38.89-22.46,16.58-23.7,23-37.46,26.54-26.9,6.87-38.83-13.54-82.3-21.45-9.08-1.65-61.73-11.22-75.37,10.88C1264.89,2439.61,1277.65,2462.68,1286.48,2478.66Z"/><path class="cls-65" d="M1304.4,2476.26c5.92,10.69,33.6,57.18,83.42,64.87,28.84,4.45,30.59-9.43,66.38-8.05,47.64,1.83,57.9,26.93,89.14,21.45,29.62-5.19,54.81-33.79,62.29-63.65,13.08-52.23-28.13-108.18-64.51-111.65-23.89-2.27-50.78,17.59-73.88,34.65-20,14.77-21.11,20.52-33.36,23.64-24,6.12-34.59-12.06-73.32-19.1-8.09-1.47-55-10-67.14,9.69C1285.17,2441.47,1296.53,2462,1304.4,2476.26Z"/></g><g class="cls-1"><path class="cls-66" d="M2134.19,2231.45c11.6,12.41,64.74,65.68,134.54,59.11,40.41-3.8,38.05-23.11,86.78-33.42,64.87-13.73,87.24,16.63,127.5-1.37,38.18-17.07,62.43-64.21,62.36-107-.12-74.89-74.71-136.33-124.95-128.63-33,5-62.5,41-87.85,71.83-22,26.73-21.49,34.85-37,43.23-30.24,16.39-50.75-4.51-105.36-.84-11.41.77-77.56,5.21-87.25,35.89C2096.43,2191.07,2118.73,2214.92,2134.19,2231.45Z"/><path class="cls-67" d="M2152.31,2224.18c10.49,11.21,58.5,59.34,121.57,53.41,36.51-3.44,34.37-20.88,78.41-30.2,58.61-12.4,78.82,15,115.19-1.24,34.5-15.42,56.41-58,56.35-96.68-.11-67.67-67.51-123.18-112.9-116.23-29.8,4.57-56.46,37-79.37,64.91-19.84,24.15-19.42,31.48-33.39,39.06-27.32,14.81-45.85-4.08-95.2-.76-10.31.69-70.07,4.71-78.83,32.43C2118.19,2187.7,2138.35,2209.25,2152.31,2224.18Z"/><path class="cls-68" d="M2170.69,2216.81c9.37,10,52.26,53,108.6,47.71,32.62-3.07,30.72-18.65,70.05-27,52.37-11.08,70.42,13.43,102.92-1.1,30.82-13.78,50.39-51.83,50.34-86.38-.1-60.45-60.31-110-100.86-103.83-26.62,4.08-50.45,33.08-70.91,58-17.73,21.57-17.35,28.12-29.83,34.89-24.41,13.23-41-3.64-85.05-.68-9.21.62-62.6,4.21-70.43,29C2140.21,2184.22,2158.21,2203.47,2170.69,2216.81Z"/><path class="cls-69" d="M2187.48,2210.1c8.34,8.93,46.55,47.23,96.74,42.51,29.06-2.74,27.36-16.62,62.4-24,46.65-9.87,62.73,12,91.68-1,27.45-12.27,44.89-46.17,44.84-76.94-.09-53.85-53.72-98-89.85-92.5-23.71,3.64-44.93,29.47-63.16,51.66-15.79,19.21-15.46,25.05-26.57,31.08-21.75,11.79-36.49-3.24-75.77-.6-8.2.55-55.76,3.74-62.73,25.8C2160.33,2181.07,2176.37,2198.22,2187.48,2210.1Z"/></g><g class="cls-1"><path class="cls-70" d="M422.94,3849.46c-4.56,16.37-22.39,89.47,19.54,145.65,24.28,32.52,39.54,20.46,73.71,56.71,45.48,48.25,31.19,83.15,67.52,108.16,34.44,23.71,87.32,19.89,123.83-2.44,63.88-39.08,77.53-134.75,44.81-173.64-21.48-25.53-67.52-32-107.06-37.63-34.25-4.84-40.94-.22-56.14-9.06-29.74-17.29-22.56-45.68-54.12-90.41-6.59-9.34-44.81-63.51-76-55.82C437.76,3796.2,429,3827.66,422.94,3849.46Z"/><path class="cls-71" d="M438.58,3861.15c-4.12,14.79-20.23,80.84,17.66,131.6,21.93,29.39,35.72,18.49,66.59,51.24,41.1,43.59,28.19,75.13,61,97.73,31.12,21.42,78.9,18,111.88-2.21,57.73-35.31,70.06-121.75,40.49-156.89-19.4-23.07-61-28.95-96.73-34-30.94-4.37-37-.19-50.73-8.18-26.86-15.62-20.38-41.27-48.89-81.69-6-8.44-40.49-57.38-68.72-50.44C452,3813,444.06,3841.46,438.58,3861.15Z"/><path class="cls-72" d="M454.44,3873c-3.68,13.21-18.08,72.22,15.77,117.57,19.6,26.25,31.92,16.51,59.5,45.77,36.71,39,25.18,67.12,54.5,87.31,27.8,19.14,70.48,16.06,100-2,51.56-31.54,62.58-108.77,36.17-140.16-17.34-20.61-54.5-25.86-86.42-30.38-27.65-3.9-33-.17-45.32-7.31-24-14-18.21-36.87-43.68-73-5.32-7.54-36.17-51.26-61.39-45.06C466.4,3830,459.33,3855.41,454.44,3873Z"/><path class="cls-73" d="M468.9,3883.85c-3.28,11.77-16.1,64.34,14.05,104.73,17.46,23.39,28.43,14.72,53,40.78,32.7,34.69,22.43,59.79,48.55,77.77,24.77,17.05,62.79,14.3,89-1.75,45.94-28.1,55.75-96.89,32.22-124.86-15.44-18.36-48.55-23-77-27.05-24.63-3.48-29.44-.16-40.37-6.52-21.38-12.43-16.22-32.84-38.91-65-4.74-6.72-32.22-45.67-54.69-40.14C479.56,3845.56,473.26,3868.18,468.9,3883.85Z"/></g><g class="cls-1"><path class="cls-74" d="M1077.75,3181.11c-13,10.91-69.14,61-66.42,131.09,1.58,40.56,21,39.27,28.6,88.49,10.14,65.53-21.4,86.19-5.64,127.38,14.94,39.06,60.68,65.87,103.42,68.15,74.78,4,140.23-67.1,135.3-117.69-3.23-33.21-37.48-64.65-66.89-91.66-25.48-23.4-33.61-23.38-41.13-39.28-14.71-31.09,7.29-50.42,6.63-105.15-.14-11.44-.94-77.73-31-89.09C1120.14,3145.63,1095.1,3166.59,1077.75,3181.11Z"/><path class="cls-75" d="M1084,3199.61c-11.77,9.85-62.47,55.15-60,118.45,1.43,36.64,19,35.47,25.84,80,9.16,59.2-19.34,77.87-5.1,115.09,13.51,35.29,54.83,59.51,93.45,61.57,67.57,3.62,126.7-60.63,122.25-106.33-2.92-30-33.86-58.42-60.44-82.82-23-21.14-30.37-21.12-37.17-35.49-13.28-28.09,6.59-45.56,6-95-.13-10.33-.85-70.23-28-80.5C1122.32,3167.55,1099.69,3186.49,1084,3199.61Z"/><path class="cls-76" d="M1090.36,3218.36c-10.51,8.81-55.81,49.27-53.61,105.82,1.27,32.74,16.94,31.69,23.09,71.43,8.18,52.89-17.28,69.57-4.56,102.82,12.06,31.53,49,53.17,83.48,55,60.36,3.23,113.2-54.17,109.22-95-2.61-26.8-30.25-52.19-54-74-20.57-18.88-27.13-18.87-33.2-31.7-11.87-25.1,5.89-40.7,5.35-84.89-.11-9.23-.76-62.73-25.05-71.91C1124.58,3189.72,1104.37,3206.64,1090.36,3218.36Z"/><path class="cls-77" d="M1096.14,3235.5c-9.37,7.84-49.72,43.89-47.76,94.26,1.13,29.16,15.08,28.23,20.56,63.63,7.29,47.11-15.39,62-4.06,91.59,10.75,28.08,43.64,47.36,74.37,49,53.77,2.87,100.83-48.25,97.29-84.63-2.33-23.87-27-46.48-48.1-65.91-18.32-16.82-24.17-16.8-29.58-28.23-10.57-22.36,5.24-36.26,4.77-75.62-.1-8.22-.68-55.88-22.32-64.06C1126.62,3210,1108.61,3225.06,1096.14,3235.5Z"/></g><g class="cls-1"><path class="cls-78" d="M1697.75,2959.38c-12.73,11.26-67.48,62.87-62.87,132.83,2.66,40.5,22,38.68,31,87.69,11.9,65.23-19.08,86.73-2.22,127.48,16,38.64,62.43,64.21,105.21,65.35,74.87,2,138.38-70.85,132.1-121.28-4.12-33.11-39.2-63.62-69.33-89.83-26.1-22.71-34.23-22.47-42.18-38.16-15.53-30.69,5.94-50.6,3.81-105.3-.45-11.42-3-77.67-33.42-88.22C1739.17,2922.77,1714.7,2944.4,1697.75,2959.38Z"/><path class="cls-79" d="M1704.51,2977.7c-11.5,10.17-61,56.81-56.81,120,2.4,36.59,19.9,35,28,79.23,10.75,58.93-17.24,78.37-2,115.18,14.45,34.92,56.41,58,95.06,59,67.64,1.79,125-64,119.36-109.58-3.73-29.92-35.42-57.49-62.65-81.17-23.58-20.51-30.92-20.3-38.1-34.48-14-27.72,5.36-45.71,3.44-95.14-.41-10.32-2.74-70.17-30.2-79.71C1741.93,2944.62,1719.83,2964.17,1704.51,2977.7Z"/><path class="cls-80" d="M1711.36,2996.28c-10.28,9.08-54.47,50.75-50.76,107.22,2.16,32.69,17.79,31.23,25,70.78,9.6,52.66-15.4,70-1.79,102.91,12.9,31.19,50.39,51.83,84.93,52.75,60.43,1.6,111.7-57.19,106.63-97.9-3.33-26.73-31.65-51.36-56-72.52-21.07-18.32-27.63-18.13-34-30.79-12.54-24.77,4.79-40.85,3.07-85-.36-9.22-2.44-62.7-27-71.22C1744.79,2966.73,1725,2984.19,1711.36,2996.28Z"/><path class="cls-81" d="M1717.59,3013.25c-9.16,8.09-48.52,45.21-45.21,95.51,1.91,29.12,15.84,27.82,22.26,63,8.56,46.91-13.72,62.37-1.59,91.67,11.49,27.79,44.89,46.17,75.65,47,53.83,1.43,99.5-50.94,95-87.21-3-23.8-28.19-45.75-49.85-64.59-18.77-16.33-24.61-16.15-30.32-27.44-11.17-22.06,4.26-36.38,2.73-75.71-.32-8.22-2.17-55.85-24-63.44C1747.37,2986.93,1729.78,3002.48,1717.59,3013.25Z"/></g><g class="cls-1"><path class="cls-82" d="M2560,2610v151.78c-45.41,1.48-84.72-17.95-95.74-23.81-20-10.62-48.8-26-49.32-47.8-.77-32.16,60.36-57.8,70.91-62.22C2519,2614,2541.73,2614.89,2560,2610Z"/><path class="cls-83" d="M2560,2610.84v135.91c-38.65-.3-71.45-16.53-80.95-21.58-18-9.6-44.09-23.46-44.57-43.19-.69-29.06,54.55-52.22,64.08-56.22C2525.28,2614.56,2544.47,2614,2560,2610.84Z"/><path class="cls-84" d="M2560,2611.24v120.07c-31.72-1.81-58-14.83-65.95-19.06-16.12-8.58-39.39-21-39.82-38.59-.62-26,48.73-46.66,57.25-50.23C2531.83,2614.9,2547.28,2613.27,2560,2611.24Z"/><path class="cls-85" d="M2560,2611.49V2716.9c-25.29-2.83-45.7-13-52.24-16.44-14.36-7.64-35.09-18.67-35.46-34.37-.56-23.13,43.4-41.56,51-44.74C2538.08,2615.15,2550,2613,2560,2611.49Z"/></g><g class="cls-1"><path class="cls-86" d="M1059.22,4500H831.7c3.69-35.78,9.73-73.65,31.16-93.44,37.34-34.48,133.54-25.27,175.52,36.75A130.65,130.65,0,0,1,1059.22,4500Z"/><path class="cls-87" d="M1038.66,4500H835c3.44-30.11,9.44-60.71,27.38-77.27,33.74-31.15,120.66-22.82,158.59,33.21A117.21,117.21,0,0,1,1038.66,4500Z"/><path class="cls-88" d="M1017.79,4500H838.46c3.23-24.31,9-48,23.51-61.36,30.14-27.83,107.79-20.39,141.68,29.67A102.91,102.91,0,0,1,1017.79,4500Z"/><path class="cls-89" d="M998,4500H841.87c3.08-18.77,8.43-36.28,19.77-46.75,26.85-24.79,96-18.17,126.21,26.42A89.92,89.92,0,0,1,998,4500Z"/></g><g class="cls-1"><path class="cls-90" d="M1116.82,3937.33c1.86,16.89,12.49,91.38,72.31,127.94,34.63,21.16,44.3,4.29,89.5,25.23,60.16,27.88,59.88,65.59,102.9,75.3,40.79,9.2,88.45-14,114-48.31,44.77-60,21.87-153.92-23-177.86-29.43-15.71-74.59-4.63-113.37,4.89-33.6,8.24-38.09,15-55.49,12.46-34-5-37.92-34-83.85-63.8-9.6-6.22-65.22-42.29-91.36-23.54C1110.78,3882.38,1114.35,3914.84,1116.82,3937.33Z"/><path class="cls-91" d="M1135.69,3942.37c1.68,15.26,11.28,82.56,65.33,115.59,31.29,19.13,40,3.88,80.87,22.81,54.36,25.18,54.1,59.25,93,68,36.86,8.32,79.92-12.66,103-43.65,40.46-54.24,19.76-139.07-20.75-160.7-26.59-14.2-67.39-4.19-102.44,4.41-30.35,7.45-34.41,13.57-50.13,11.27-30.75-4.52-34.27-30.74-75.77-57.65-8.67-5.62-58.92-38.22-82.54-21.27C1130.23,3892.71,1133.45,3922.05,1135.69,3942.37Z"/><path class="cls-92" d="M1154.82,3947.48c1.5,13.63,10.08,73.76,58.36,103.27,28,17.08,35.77,3.46,72.25,20.37,48.56,22.5,48.34,52.94,83.06,60.78,32.93,7.43,71.4-11.31,92.06-39,36.14-48.46,17.65-124.24-18.54-143.56-23.76-12.69-60.21-3.74-91.52,3.94-27.12,6.65-30.74,12.12-44.79,10.06-27.47-4-30.61-27.45-67.69-51.5-7.74-5-52.64-34.14-73.74-19C1149.94,3903.12,1152.82,3929.32,1154.82,3947.48Z"/><path class="cls-93" d="M1172.28,3952.17c1.33,12.14,9,65.7,52,92,24.9,15.22,31.86,3.09,64.36,18.15,43.25,20,43,47.16,74,54.14,29.34,6.62,63.61-10.07,82-34.74,32.19-43.17,15.72-110.67-16.52-127.88-21.16-11.3-53.63-3.34-81.52,3.51-24.16,5.92-27.38,10.8-39.9,9-24.47-3.59-27.27-24.46-60.29-45.87-6.9-4.48-46.9-30.42-65.69-16.93C1167.93,3912.65,1170.5,3936,1172.28,3952.17Z"/></g><g class="cls-1"><path class="cls-94" d="M1912.8,3754c13.06,10.86,72.45,57.06,140.88,41.8,39.61-8.83,34.86-27.69,81.92-44,62.63-21.74,88.63,5.58,126.32-17.32,35.74-21.71,53.9-71.52,48.47-114-9.49-74.29-91.19-125.91-140.07-112-32.09,9.14-56.87,48.48-78.16,82.27-18.44,29.26-17,37.26-31.25,47.51-27.95,20-50.91,1.88-104.64,12.36-11.23,2.19-76.29,14.88-82.07,46.53C1870.28,3718.68,1895.39,3739.55,1912.8,3754Z"/><path class="cls-95" d="M1929.87,3744.53c11.8,9.81,65.47,51.55,127.29,37.77,35.79-8,31.49-25,74-39.78,56.6-19.64,80.09,5,114.14-15.65,32.29-19.62,48.7-64.62,43.8-103-8.58-67.12-82.4-113.76-126.56-101.17-29,8.26-51.39,43.8-70.62,74.33-16.66,26.44-15.33,33.67-28.24,42.93-25.25,18.11-46,1.7-94.55,11.17-10.14,2-68.93,13.44-74.15,42C1891.45,3712.61,1914.14,3731.46,1929.87,3744.53Z"/><path class="cls-96" d="M1947.18,3734.91c10.54,8.77,58.49,46.06,113.72,33.75,32-7.13,28.13-22.35,66.12-35.54,50.56-17.55,71.55,4.51,102-14,28.85-17.53,43.51-57.73,39.13-92-7.67-60-73.61-101.63-113.07-90.39-25.9,7.38-45.91,39.14-63.09,66.41-14.89,23.62-13.69,30.08-25.23,38.35-22.56,16.19-41.09,1.52-84.46,10-9.06,1.77-61.59,12-66.25,37.56C1912.85,3706.4,1933.13,3723.24,1947.18,3734.91Z"/><path class="cls-97" d="M1963,3726.16c9.4,7.81,52.11,41,101.31,30.06,28.48-6.35,25.06-19.91,58.9-31.66,45-15.63,63.73,4,90.83-12.45,25.7-15.61,38.76-51.43,34.85-82-6.82-53.42-65.57-90.53-100.71-80.52-23.07,6.58-40.9,34.86-56.21,59.16-13.25,21-12.19,26.79-22.47,34.16-20.09,14.42-36.6,1.35-75.24,8.89-8.07,1.57-54.85,10.69-59,33.45C1932.42,3700.76,1950.48,3715.76,1963,3726.16Z"/></g><g class="cls-1"><path class="cls-98" d="M1596.51,4500H1472.06c.24-12.46,3.08-23.85,11.46-30.73,24.88-20.4,82.71,12,92.69,17.61A188.1,188.1,0,0,1,1596.51,4500Z"/><path class="cls-99" d="M1593.16,4500h-101c1.09-8.26,3.95-15.52,9.82-20.33,22.48-18.43,74.73,10.86,83.74,15.91C1588.33,4497.05,1590.81,4498.53,1593.16,4500Z"/><path class="cls-100" d="M1587.46,4500h-73.58a22.69,22.69,0,0,1,6.8-9.88C1537.05,4476.7,1571.07,4491.59,1587.46,4500Z"/><path class="cls-101" d="M1577.92,4500h-40.51l.35-.3C1547.33,4491.85,1563.68,4494.87,1577.92,4500Z"/></g><g class="cls-1"><path class="cls-102" d="M2147.3,4231.17c10.83,13.1,60.63,69.5,130.7,67.19,40.56-1.34,39.38-20.76,88.65-28.09,65.58-9.76,86.07,21.91,127.34,6.39,39.15-14.72,66.22-60.3,68.76-103,4.43-74.76-66.29-140.62-116.9-136-33.23,3-64.87,37.1-92.06,66.36-23.54,25.34-23.56,33.48-39.51,40.9-31.17,14.52-50.38-7.58-105.12-7.24-11.43.07-77.72.48-89.26,30.52C2112.06,4188.58,2132.88,4213.74,2147.3,4231.17Z"/><path class="cls-103" d="M2165.83,4225c9.78,11.83,54.78,62.79,118.09,60.7,36.65-1.21,35.59-18.75,80.1-25.37,59.26-8.82,77.77,19.79,115.06,5.77,35.37-13.3,59.83-54.48,62.12-93.09,4-67.54-59.89-127-105.62-122.87-30,2.75-58.61,33.53-83.17,60-21.27,22.9-21.3,30.25-35.7,37-28.17,13.12-45.52-6.86-95-6.55-10.33.07-70.23.44-80.66,27.58C2134,4186.53,2152.8,4209.27,2165.83,4225Z"/><path class="cls-104" d="M2184.62,4218.78c8.74,10.57,48.94,56.1,105.5,54.23,32.75-1.08,31.79-16.75,71.56-22.67,52.94-7.88,69.48,17.68,102.8,5.16,31.59-11.88,53.45-48.68,55.49-83.16,3.58-60.35-53.5-113.51-94.36-109.77-26.82,2.45-52.36,29.95-74.3,53.56-19,20.46-19,27-31.9,33-25.16,11.72-40.66-6.13-84.85-5.85-9.23.06-62.74.39-72.06,24.64C2156.18,4184.4,2173,4204.71,2184.62,4218.78Z"/><path class="cls-105" d="M2201.79,4213.11c7.78,9.41,43.59,50,94,48.31,29.16-1,28.31-14.93,63.74-20.2,47.16-7,61.89,15.75,91.57,4.59,28.14-10.58,47.61-43.35,49.43-74.07,3.19-53.76-47.66-101.11-84.05-97.79-23.89,2.19-46.65,26.68-66.19,47.72-16.93,18.22-16.95,24.07-28.41,29.41-22.42,10.44-36.23-5.45-75.59-5.21-8.22.05-55.89.35-64.19,21.95C2176.45,4182.48,2191.42,4200.57,2201.79,4213.11Z"/></g></g></g></svg>