<svg xmlns="http://www.w3.org/2000/svg" viewBox="0 0 562.78 577.68"><defs><style>.cls-1{fill:#0083f9;}.cls-1,.cls-2{opacity:0.41;}.cls-2{fill:#0353a4;}.cls-3{fill:#001845;opacity:0.57;}</style></defs><title>landing_page_blob</title><g id="Layer_2" data-name="Layer 2"><g id="Layer_1-2" data-name="Layer 1"><path class="cls-1" d="M486.46,413.66C353.11,473.57,183.24,511.45,107,498.28S-15.06,358.37,4.52,215.2,194,34.14,383.94,130.58,619.81,353.76,486.46,413.66Z"/><path class="cls-2" d="M484.85,396.08c-67.32,103.84-172.62,185.1-235.2,181.48S89,414,30.48,220.28s46.84-275,235.21-181.49S552.18,292.24,484.85,396.08Z"/><path class="cls-3" d="M456.49,188.16c12,106.36-6.55,232-41.44,280.69s-160.55,47.59-280.67-2.39S32.82,290.81,175.83,185.77,444.49,81.8,456.49,188.16Z"/></g></g></svg>