<svg xmlns="http://www.w3.org/2000/svg" viewBox="0 0 931.71 616.44"><defs><style>.cls-1{opacity:0.5;}.cls-2{fill:#3a86ff;}.cls-3{fill:#ef233c;}.cls-4{fill:#2b9348;}.cls-14,.cls-5{fill:none;stroke:#fff;stroke-miterlimit:10;}.cls-5{stroke-width:0.63px;}.cls-6,.cls-7{fill:#fff;}.cls-7{font-size:22.2px;font-family:Montserrat-Light, Montserrat;font-weight:300;}.cls-8{letter-spacing:0em;}.cls-9{letter-spacing:-0.01em;}.cls-10{letter-spacing:0em;}.cls-11{letter-spacing:-0.02em;}.cls-12{letter-spacing:-0.03em;}.cls-13{letter-spacing:-0.01em;}.cls-14{stroke-width:1.16px;}</style></defs><title>landing_page_pie_chart</title><g id="Layer_2" data-name="Layer 2"><g id="Layer_1-2" data-name="Layer 1"><g class="cls-1"><path class="cls-2" d="M229.67,375.16c0,10.29-.8,20.69,1.39,30.31,2.25,9.94,10,17.79,14.29,26.75,4.4,9.12,6.2,19.69,12.45,27.51S275.33,470,283.2,476.3s14.76,12.38,23.87,16.77c9,4.33,16.33,13.51,26.27,15.77,9.62,2.19,20.22-.9,30.51-.9s21.12,4.13,30.74,1.94c9.94-2.26,17.93-10.7,26.89-15s15.33-12.12,23.16-18.37,19.11-8.77,25.4-16.63A136.94,136.94,0,0,0,486,434c4.33-9,3.57-19.68,5.83-29.62,2.19-9.62,7-18.93,7-29.22s-5.68-19.39-7.87-29c-2.26-9.94-1.36-20.49-5.68-29.46s-12.86-15.29-19.11-23.12-12.11-15.38-20-21.66-14.15-15-23.26-19.42-19.3-5.78-29.24-8c-9.62-2.18-19.55-.88-29.83-.88s-19.79.59-29.41,2.78a128.14,128.14,0,0,0-27.81,10c-9.11,4.39-21.59,3.93-29.42,10.18s-8.72,19.72-15,27.59S249.4,308.82,245,317.94c-4.32,9-9.76,17.42-12,27.35A134.31,134.31,0,0,0,229.67,375.16Z"/></g><g class="cls-1"><path class="cls-3" d="M401.54,418.29c0,10.29-.8,20.68,1.38,30.31,2.26,9.94,10,17.79,14.3,26.75s6.2,19.68,12.45,27.51,17.53,10.28,25.4,16.57,14.76,12.37,23.87,16.77c9,4.32,16.33,13.51,26.26,15.77,9.63,2.18,20.23-.9,30.51-.9s21.13,4.12,30.75,1.94c9.94-2.26,17.93-10.71,26.89-15s15.33-12.12,23.16-18.37,19.11-8.77,25.4-16.64a136.86,136.86,0,0,0,16-25.84c4.33-9,3.57-19.68,5.83-29.62,2.19-9.62,7-18.93,7-29.22s-5.68-19.39-7.87-29c-2.26-9.93-1.36-20.49-5.68-29.45-4.4-9.12-12.86-15.29-19.11-23.12s-12.11-15.38-20-21.66-14.15-15-23.26-19.42-19.3-5.78-29.24-8c-9.62-2.19-19.55-.89-29.84-.89s-19.78.6-29.4,2.78a128.67,128.67,0,0,0-27.81,10c-9.11,4.4-21.59,3.94-29.42,10.19s-8.72,19.72-15,27.58S421.27,352,416.87,361.06s-9.76,17.42-12,27.36A134.18,134.18,0,0,0,401.54,418.29Z"/></g><g class="cls-1"><path class="cls-4" d="M364.12,233.1c0,10.29-.8,20.69,1.39,30.31,2.26,9.94,10,17.79,14.29,26.75,4.4,9.12,6.2,19.68,12.45,27.51s17.53,10.29,25.4,16.57,14.76,12.37,23.87,16.77,16.33,13.51,26.27,15.77c9.62,2.19,20.22-.9,30.51-.9S519.42,370,529,367.82c9.94-2.26,17.93-10.7,26.89-15,9.12-4.4,15.33-12.12,23.16-18.37s19.12-8.77,25.4-16.64a137.1,137.1,0,0,0,16-25.84c4.32-9,3.56-19.68,5.82-29.62,2.19-9.62,7-18.93,7-29.22s-5.68-19.39-7.87-29c-2.25-9.93-1.35-20.49-5.68-29.45s-12.86-15.29-19.11-23.12-12.11-15.38-20-21.66-14.15-15-23.26-19.42-19.3-5.78-29.24-8c-9.62-2.18-19.55-.88-29.83-.88s-19.78.59-29.41,2.78a128.3,128.3,0,0,0-27.81,10c-9.11,4.4-21.59,3.94-29.42,10.19s-8.72,19.72-15,27.58-12.81,14.71-17.21,23.82-9.76,17.42-12,27.36A134.91,134.91,0,0,0,364.12,233.1Z"/></g><path class="cls-5" d="M514.26,79.67c3.92-10.9,14.61-33.89,36.65-48.31,32.19-21.07,66.85-21.89,73.25-20.62"/><polygon class="cls-6" points="517.6 79.81 512.86 84 511.61 77.8 517.6 79.81"/><text class="cls-7" transform="translate(633.21 18.87)">M<tspan class="cls-8" x="21.22" y="0">a</tspan><tspan class="cls-9" x="34.18" y="0">c</tspan><tspan x="46.3" y="0">hi</tspan><tspan class="cls-10" x="67.03" y="0">n</tspan><tspan x="82" y="0">e l</tspan><tspan class="cls-11" x="106.74" y="0">e</tspan><tspan x="119.66" y="0">a</tspan><tspan class="cls-9" x="132.6" y="0">r</tspan><tspan x="141.15" y="0">ni</tspan><tspan class="cls-8" x="161.88" y="0">n</tspan><tspan x="176.84" y="0">g</tspan></text><path class="cls-5" d="M740.57,607.92c-7.4,2.09-37,8.22-64.78-4.86-29.7-14-47.78-37.24-53.85-47.56"/><polygon class="cls-6" points="625.24 554.8 619.88 551.45 619.66 557.77 625.24 554.8"/><text class="cls-7" transform="translate(753.1 610.65)"><tspan class="cls-12">P</tspan><tspan class="cls-13" x="15.29" y="0">r</tspan><tspan x="23.73" y="0">oblem solvi</tspan><tspan class="cls-8" x="148.52" y="0">n</tspan><tspan x="163.48" y="0">g</tspan></text><path class="cls-5" d="M92.51,470.75c1.84-7.46,11.15-36.22,36.26-53.88,26.86-18.9,56-23.11,68-23.28"/><polygon class="cls-6" points="195.72 396.81 201.29 393.8 195.9 390.48 195.72 396.81"/><text class="cls-7" transform="translate(0 502.2)">Data mini<tspan class="cls-8" x="108.9" y="0">n</tspan><tspan x="123.86" y="0">g</tspan></text><path class="cls-14" d="M481.55,333c7.7-18.91,28.41-58.15,70.84-82.83,62.37-36.27,129.49-37.69,141.89-35.49"/><polygon class="cls-6" points="487.64 333.54 478.68 340.83 476.85 329.43 487.64 333.54"/><text class="cls-7" transform="translate(708.88 220.59)">ME</text></g></g></svg>