<svg xmlns="http://www.w3.org/2000/svg" xmlns:xlink="http://www.w3.org/1999/xlink" viewBox="0 0 822.87 487.83"><defs><style>.cls-1,.cls-4,.cls-9{opacity:0.8;}.cls-1{fill:url(#linear-gradient);}.cls-2,.cls-3{opacity:0.6;}.cls-2{fill:url(#linear-gradient-2);}.cls-3{fill:url(#linear-gradient-3);}.cls-4{fill:url(#linear-gradient-4);}.cls-5,.cls-6{opacity:0.2;}.cls-5{fill:url(#linear-gradient-5);}.cls-6{stroke:#1a1a1a;stroke-width:0.44px;fill:url(#linear-gradient-6);}.cls-10,.cls-100,.cls-101,.cls-102,.cls-103,.cls-104,.cls-105,.cls-106,.cls-107,.cls-108,.cls-109,.cls-11,.cls-110,.cls-111,.cls-112,.cls-113,.cls-114,.cls-115,.cls-116,.cls-117,.cls-118,.cls-119,.cls-12,.cls-120,.cls-121,.cls-122,.cls-123,.cls-124,.cls-125,.cls-126,.cls-127,.cls-128,.cls-129,.cls-13,.cls-130,.cls-131,.cls-132,.cls-133,.cls-134,.cls-135,.cls-136,.cls-137,.cls-138,.cls-139,.cls-14,.cls-140,.cls-141,.cls-142,.cls-143,.cls-144,.cls-145,.cls-146,.cls-147,.cls-148,.cls-149,.cls-15,.cls-150,.cls-151,.cls-152,.cls-153,.cls-154,.cls-155,.cls-156,.cls-157,.cls-158,.cls-159,.cls-16,.cls-160,.cls-161,.cls-162,.cls-163,.cls-164,.cls-165,.cls-166,.cls-167,.cls-168,.cls-169,.cls-17,.cls-170,.cls-171,.cls-172,.cls-173,.cls-174,.cls-175,.cls-176,.cls-177,.cls-178,.cls-179,.cls-18,.cls-180,.cls-19,.cls-20,.cls-21,.cls-22,.cls-23,.cls-24,.cls-25,.cls-26,.cls-27,.cls-28,.cls-29,.cls-30,.cls-31,.cls-32,.cls-33,.cls-34,.cls-35,.cls-36,.cls-37,.cls-38,.cls-39,.cls-40,.cls-41,.cls-42,.cls-43,.cls-44,.cls-45,.cls-46,.cls-47,.cls-48,.cls-49,.cls-50,.cls-51,.cls-52,.cls-53,.cls-54,.cls-55,.cls-56,.cls-57,.cls-58,.cls-59,.cls-6,.cls-60,.cls-61,.cls-62,.cls-63,.cls-64,.cls-65,.cls-66,.cls-67,.cls-68,.cls-69,.cls-70,.cls-71,.cls-72,.cls-73,.cls-74,.cls-75,.cls-76,.cls-77,.cls-78,.cls-79,.cls-80,.cls-81,.cls-82,.cls-83,.cls-84,.cls-85,.cls-86,.cls-87,.cls-88,.cls-89,.cls-90,.cls-91,.cls-92,.cls-93,.cls-94,.cls-95,.cls-96,.cls-97,.cls-98,.cls-99{stroke-miterlimit:10;}.cls-7,.cls-8{opacity:0.4;}.cls-7{fill:url(#linear-gradient-7);}.cls-8{fill:url(#linear-gradient-8);}.cls-10,.cls-100,.cls-101,.cls-102,.cls-103,.cls-104,.cls-105,.cls-106,.cls-107,.cls-108,.cls-109,.cls-11,.cls-110,.cls-111,.cls-112,.cls-113,.cls-114,.cls-115,.cls-116,.cls-117,.cls-118,.cls-119,.cls-12,.cls-120,.cls-121,.cls-122,.cls-123,.cls-124,.cls-125,.cls-126,.cls-127,.cls-128,.cls-129,.cls-13,.cls-130,.cls-131,.cls-132,.cls-133,.cls-134,.cls-135,.cls-136,.cls-137,.cls-138,.cls-139,.cls-14,.cls-140,.cls-141,.cls-142,.cls-143,.cls-144,.cls-145,.cls-146,.cls-147,.cls-148,.cls-149,.cls-15,.cls-150,.cls-151,.cls-152,.cls-153,.cls-154,.cls-155,.cls-156,.cls-157,.cls-158,.cls-159,.cls-16,.cls-160,.cls-161,.cls-162,.cls-163,.cls-164,.cls-165,.cls-166,.cls-167,.cls-168,.cls-169,.cls-17,.cls-170,.cls-171,.cls-172,.cls-173,.cls-174,.cls-175,.cls-176,.cls-177,.cls-178,.cls-179,.cls-18,.cls-180,.cls-19,.cls-20,.cls-21,.cls-22,.cls-23,.cls-24,.cls-25,.cls-26,.cls-27,.cls-28,.cls-29,.cls-30,.cls-31,.cls-32,.cls-33,.cls-34,.cls-35,.cls-36,.cls-37,.cls-38,.cls-39,.cls-40,.cls-41,.cls-42,.cls-43,.cls-44,.cls-45,.cls-46,.cls-47,.cls-48,.cls-49,.cls-50,.cls-51,.cls-52,.cls-53,.cls-54,.cls-55,.cls-56,.cls-57,.cls-58,.cls-59,.cls-60,.cls-61,.cls-62,.cls-63,.cls-64,.cls-65,.cls-66,.cls-67,.cls-68,.cls-69,.cls-70,.cls-71,.cls-72,.cls-73,.cls-74,.cls-75,.cls-76,.cls-77,.cls-78,.cls-79,.cls-80,.cls-81,.cls-82,.cls-83,.cls-84,.cls-85,.cls-86,.cls-87,.cls-88,.cls-89,.cls-90,.cls-91,.cls-92,.cls-93,.cls-94,.cls-95,.cls-96,.cls-97,.cls-98,.cls-99{fill:none;stroke:#666;}.cls-10{stroke-width:0.09px;}.cls-11{stroke-width:0.09px;}.cls-12{stroke-width:0.09px;}.cls-13{stroke-width:0.09px;}.cls-14{stroke-width:0.09px;}.cls-15{stroke-width:0.1px;}.cls-16{stroke-width:0.1px;}.cls-17{stroke-width:0.1px;}.cls-18{stroke-width:0.1px;}.cls-19{stroke-width:0.1px;}.cls-20{stroke-width:0.1px;}.cls-21{stroke-width:0.1px;}.cls-22{stroke-width:0.11px;}.cls-23{stroke-width:0.11px;}.cls-24{stroke-width:0.11px;}.cls-25{stroke-width:0.11px;}.cls-26{stroke-width:0.11px;}.cls-27{stroke-width:0.11px;}.cls-28{stroke-width:0.12px;}.cls-29{stroke-width:0.12px;}.cls-30{stroke-width:0.12px;}.cls-31{stroke-width:0.12px;}.cls-32{stroke-width:0.12px;}.cls-33{stroke-width:0.13px;}.cls-34{stroke-width:0.13px;}.cls-35{stroke-width:0.13px;}.cls-36{stroke-width:0.13px;}.cls-37{stroke-width:0.13px;}.cls-38{stroke-width:0.14px;}.cls-39{stroke-width:0.14px;}.cls-40{stroke-width:0.14px;}.cls-41{stroke-width:0.14px;}.cls-42{stroke-width:0.14px;}.cls-43{stroke-width:0.15px;}.cls-44{stroke-width:0.15px;}.cls-45{stroke-width:0.15px;}.cls-46{stroke-width:0.15px;}.cls-47{stroke-width:0.16px;}.cls-48{stroke-width:0.16px;}.cls-49{stroke-width:0.16px;}.cls-50{stroke-width:0.16px;}.cls-51{stroke-width:0.17px;}.cls-52{stroke-width:0.17px;}.cls-53{stroke-width:0.17px;}.cls-54{stroke-width:0.17px;}.cls-55{stroke-width:0.18px;}.cls-56{stroke-width:0.18px;}.cls-57{stroke-width:0.18px;}.cls-58{stroke-width:0.18px;}.cls-59{stroke-width:0.19px;}.cls-60{stroke-width:0.19px;}.cls-61{stroke-width:0.19px;}.cls-62{stroke-width:0.2px;}.cls-63{stroke-width:0.2px;}.cls-64{stroke-width:0.2px;}.cls-65{stroke-width:0.2px;}.cls-66{stroke-width:0.21px;}.cls-67{stroke-width:0.21px;}.cls-68{stroke-width:0.21px;}.cls-69{stroke-width:0.22px;}.cls-70{stroke-width:0.22px;}.cls-71{stroke-width:0.22px;}.cls-72{stroke-width:0.23px;}.cls-73{stroke-width:0.23px;}.cls-74{stroke-width:0.23px;}.cls-75{stroke-width:0.24px;}.cls-76{stroke-width:0.24px;}.cls-77{stroke-width:0.25px;}.cls-78{stroke-width:0.25px;}.cls-79{stroke-width:0.25px;}.cls-80{stroke-width:0.26px;}.cls-81{stroke-width:0.26px;}.cls-82{stroke-width:0.26px;}.cls-83{stroke-width:0.27px;}.cls-84{stroke-width:0.27px;}.cls-85{stroke-width:0.28px;}.cls-86{stroke-width:0.28px;}.cls-87{stroke-width:0.29px;}.cls-88{stroke-width:0.29px;}.cls-89{stroke-width:0.29px;}.cls-90{stroke-width:0.3px;}.cls-91{stroke-width:0.3px;}.cls-92{stroke-width:0.31px;}.cls-93{stroke-width:0.31px;}.cls-94{stroke-width:0.32px;}.cls-95{stroke-width:0.32px;}.cls-96{stroke-width:0.33px;}.cls-97{stroke-width:0.33px;}.cls-98{stroke-width:0.34px;}.cls-99{stroke-width:0.34px;}.cls-100{stroke-width:0.35px;}.cls-101{stroke-width:0.35px;}.cls-102{stroke-width:0.36px;}.cls-103{stroke-width:0.36px;}.cls-104{stroke-width:0.37px;}.cls-105{stroke-width:0.38px;}.cls-106{stroke-width:0.38px;}.cls-107{stroke-width:0.39px;}.cls-108{stroke-width:0.39px;}.cls-109{stroke-width:0.4px;}.cls-110{stroke-width:0.41px;}.cls-111{stroke-width:0.41px;}.cls-112{stroke-width:0.42px;}.cls-113{stroke-width:0.42px;}.cls-114{stroke-width:0.43px;}.cls-115{stroke-width:0.44px;}.cls-116{stroke-width:0.44px;}.cls-117{stroke-width:0.45px;}.cls-118{stroke-width:0.46px;}.cls-119{stroke-width:0.46px;}.cls-120{stroke-width:0.47px;}.cls-121{stroke-width:0.48px;}.cls-122{stroke-width:0.49px;}.cls-123{stroke-width:0.49px;}.cls-124{stroke-width:0.5px;}.cls-125{stroke-width:0.51px;}.cls-126{stroke-width:0.52px;}.cls-127{stroke-width:0.53px;}.cls-128{stroke-width:0.53px;}.cls-129{stroke-width:0.54px;}.cls-130{stroke-width:0.55px;}.cls-131{stroke-width:0.56px;}.cls-132{stroke-width:0.57px;}.cls-133{stroke-width:0.58px;}.cls-134{stroke-width:0.58px;}.cls-135{stroke-width:0.59px;}.cls-136{stroke-width:0.6px;}.cls-137{stroke-width:0.61px;}.cls-138{stroke-width:0.62px;}.cls-139{stroke-width:0.63px;}.cls-140{stroke-width:0.64px;}.cls-141{stroke-width:0.65px;}.cls-142{stroke-width:0.66px;}.cls-143{stroke-width:0.67px;}.cls-144{stroke-width:0.68px;}.cls-145{stroke-width:0.69px;}.cls-146{stroke-width:0.7px;}.cls-147{stroke-width:0.71px;}.cls-148{stroke-width:0.72px;}.cls-149{stroke-width:0.73px;}.cls-150{stroke-width:0.75px;}.cls-151{stroke-width:0.76px;}.cls-152{stroke-width:0.77px;}.cls-153{stroke-width:0.78px;}.cls-154{stroke-width:0.79px;}.cls-155{stroke-width:0.8px;}.cls-156{stroke-width:0.82px;}.cls-157{stroke-width:0.83px;}.cls-158{stroke-width:0.84px;}.cls-159{stroke-width:0.85px;}.cls-160{stroke-width:0.87px;}.cls-161{stroke-width:0.88px;}.cls-162{stroke-width:0.89px;}.cls-163{stroke-width:0.91px;}.cls-164{stroke-width:0.92px;}.cls-165{stroke-width:0.94px;}.cls-166{stroke-width:0.95px;}.cls-167{stroke-width:0.97px;}.cls-168{stroke-width:0.98px;}.cls-169{stroke-width:1px;}.cls-170{stroke-width:1.01px;}.cls-171{stroke-width:1.03px;}.cls-172{stroke-width:1.04px;}.cls-173{stroke-width:1.06px;}.cls-174{stroke-width:1.07px;}.cls-175{stroke-width:1.09px;}.cls-176{stroke-width:1.11px;}.cls-177{stroke-width:1.12px;}.cls-178{stroke-width:1.14px;}.cls-179{stroke-width:1.16px;}.cls-180{stroke-width:1.18px;}</style><linearGradient id="linear-gradient" x1="360.65" y1="243.32" x2="664.5" y2="243.32" gradientUnits="userSpaceOnUse"><stop offset="0" stop-color="#023e8a"/><stop offset="1"/></linearGradient><linearGradient id="linear-gradient-2" x1="209.03" y1="391.28" x2="490.01" y2="391.28" gradientUnits="userSpaceOnUse"><stop offset="0" stop-color="#f9c74f"/><stop offset="1"/></linearGradient><linearGradient id="linear-gradient-3" x1="224.4" y1="391.24" x2="505.39" y2="391.24" xlink:href="#linear-gradient-2"/><linearGradient id="linear-gradient-4" x1="376.86" y1="243.02" x2="680.71" y2="243.02" xlink:href="#linear-gradient"/><linearGradient id="linear-gradient-5" x1="336.86" y1="451.01" x2="822.68" y2="451.01" gradientUnits="userSpaceOnUse"><stop offset="0" stop-color="#ef233c"/><stop offset="1"/></linearGradient><linearGradient id="linear-gradient-6" x1="360.48" y1="451.18" x2="822.68" y2="451.18" xlink:href="#linear-gradient-5"/><linearGradient id="linear-gradient-7" x1="241.78" y1="421.55" x2="578.86" y2="421.55" gradientUnits="userSpaceOnUse"><stop offset="0" stop-color="#2b9348"/><stop offset="1"/></linearGradient><linearGradient id="linear-gradient-8" x1="265.08" y1="421.65" x2="602.17" y2="421.65" xlink:href="#linear-gradient-7"/></defs><title>landing_page_distribution</title><g id="Layer_2" data-name="Layer 2"><g id="Layer_1-2" data-name="Layer 1"><path class="cls-1" d="M360.65,486.33c65.86-74.74,73-486,151.93-486s86.06,411.29,151.92,486Z"/><path class="cls-2" d="M209,487c60.9-29.43,67.53-191.36,140.49-191.36S429.11,457.53,490,487Z"/><path class="cls-3" d="M224.4,486.92c60.91-29.42,67.53-191.36,140.49-191.36s79.59,161.94,140.5,191.36Z"/><path class="cls-4" d="M376.86,486c65.86-74.74,73-486,151.92-486s86.06,411.29,151.93,486Z"/><path class="cls-5" d="M822.68,485.93H336.86a260.22,260.22,0,0,0,27.5-4.24c6.86-1.46,13.29-3.13,19.38-5,27.17-8.28,47.52-20.08,69.43-31.06,4-2,8.09-4,12.28-5.95a242.69,242.69,0,0,1,42.08-15.31c6.3-1.63,13-3.07,20.13-4.28a313,313,0,0,1,52.1-4q7.53,0,14.54.27a290.73,290.73,0,0,1,40.44,4.24c6.14,1.11,11.92,2.39,17.42,3.83,51.2,13.28,77.85,39.21,127.37,53.36a246.11,246.11,0,0,0,43.09,8.12Z"/><path class="cls-6" d="M822.68,485.93h-.06a.91.91,0,0,0,0,.17H360.48l.41-.05c.4,0,.8-.07,1.18-.12,5.89-.63,11.48-1.42,16.82-2.33,33.73-5.81,57.15-16.93,79.72-28.49,4-2,7.88-4.05,11.83-6.07,13-6.65,26.19-13.15,41.48-18.59,6-2.12,12.28-4.08,19-5.83C548.51,420,569,417,594.3,416.37q4.44-.11,9.09-.1c11,0,21.09.44,30.47,1.27,5.9.51,11.51,1.19,16.86,2,58.53,8.73,86.58,33.16,128.83,50.29a229.87,229.87,0,0,0,43.1,12.82c0,1.1,0,2.19,0,3.28Z"/><path class="cls-7" d="M241.78,486.61c73.07-20,81-130.11,168.54-130.11s95.47,110.1,168.54,130.11Z"/><path class="cls-8" d="M265.08,486.7c73.07-20,81-130.1,168.55-130.1S529.1,466.69,602.17,486.7Z"/><g class="cls-9"><path class="cls-10" d="M500.57,487.65c57.68-.28,63.95-1.84,133.05-1.84s75.37,1.56,133,1.84"/><path class="cls-11" d="M497.62,487.65c57.69-.29,64-1.89,133-1.89s75.37,1.6,133.05,1.89"/><path class="cls-12" d="M494.68,487.65c57.68-.3,64-1.95,133.05-1.95s75.37,1.65,133,1.95"/><path class="cls-13" d="M491.74,487.65c57.68-.31,64-2,133-2s75.37,1.7,133.05,2"/><path class="cls-14" d="M488.8,487.65c57.68-.32,63.95-2.08,133.05-2.08s75.37,1.76,133,2.08"/><path class="cls-15" d="M485.86,487.65c57.68-.33,63.95-2.14,133-2.14s75.36,1.81,133,2.14"/><path class="cls-16" d="M482.91,487.65c57.68-.34,64-2.21,133.05-2.21s75.37,1.87,133,2.21"/><path class="cls-17" d="M480,487.65c57.68-.35,64-2.27,133-2.27s75.37,1.92,133.05,2.27"/><path class="cls-18" d="M477,487.65c57.68-.36,64-2.35,133.05-2.35s75.37,2,133,2.35"/><path class="cls-19" d="M474.09,487.65c57.68-.37,63.95-2.42,133.05-2.42s75.36,2,133.05,2.42"/><path class="cls-20" d="M471.14,487.65c57.69-.38,64-2.49,133.05-2.49s75.37,2.11,133,2.49"/><path class="cls-21" d="M468.2,487.65c57.68-.4,64-2.57,133.05-2.57s75.37,2.17,133,2.57"/><path class="cls-22" d="M465.26,487.65c57.68-.41,64-2.65,133-2.65s75.37,2.24,133.05,2.65"/><path class="cls-23" d="M462.32,487.65c57.68-.42,63.95-2.73,133.05-2.73s75.37,2.31,133,2.73"/><path class="cls-24" d="M459.38,487.65c57.68-.43,64-2.82,133-2.82s75.37,2.39,133.05,2.82"/><path class="cls-25" d="M456.43,487.65c57.68-.45,64-2.9,133.05-2.9s75.37,2.45,133,2.9"/><path class="cls-26" d="M453.49,487.65c57.68-.46,64-3,133-3s75.37,2.53,133.05,3"/><path class="cls-27" d="M450.55,487.65c57.68-.48,63.95-3.09,133.05-3.09s75.37,2.61,133,3.09"/><path class="cls-28" d="M447.61,487.65c57.68-.49,63.95-3.18,133-3.18s75.36,2.69,133.05,3.18"/><path class="cls-29" d="M444.66,487.65c57.68-.51,64-3.28,133.05-3.28s75.37,2.77,133,3.28"/><path class="cls-30" d="M441.72,487.65c57.68-.52,64-3.38,133-3.38s75.37,2.86,133.05,3.38"/><path class="cls-31" d="M438.78,487.65c57.68-.54,64-3.49,133.05-3.49s75.37,2.95,133,3.49"/><path class="cls-32" d="M435.84,487.65c57.68-.55,64-3.59,133.05-3.59s75.37,3,133.05,3.59"/><path class="cls-33" d="M432.9,487.65c57.68-.57,64-3.7,133-3.7s75.37,3.13,133,3.7"/><path class="cls-34" d="M430,487.65c57.68-.59,64-3.82,133.05-3.82s75.37,3.23,133,3.82"/><path class="cls-35" d="M427,487.65c57.68-.61,64-3.94,133-3.94s75.37,3.33,133.05,3.94"/><path class="cls-36" d="M424.07,487.65c57.68-.63,63.95-4.06,133.05-4.06s75.37,3.43,133,4.06"/><path class="cls-37" d="M421.13,487.65c57.68-.65,63.95-4.19,133-4.19s75.36,3.54,133,4.19"/><path class="cls-38" d="M418.18,487.65c57.68-.67,64-4.31,133.05-4.31s75.37,3.64,133,4.31"/><path class="cls-39" d="M415.24,487.65c57.68-.69,64-4.45,133-4.45s75.37,3.76,133.05,4.45"/><path class="cls-40" d="M412.3,487.65c57.68-.71,64-4.59,133.05-4.59s75.37,3.88,133,4.59"/><path class="cls-41" d="M409.36,487.65c57.68-.73,63.95-4.73,133-4.73s75.37,4,133.05,4.73"/><path class="cls-42" d="M406.42,487.65c57.68-.75,63.95-4.87,133-4.87s75.37,4.12,133,4.87"/><path class="cls-43" d="M403.47,487.65c57.68-.78,64-5,133-5s75.37,4.24,133.05,5"/><path class="cls-44" d="M400.53,487.65c57.68-.8,64-5.18,133.05-5.18s75.37,4.38,133,5.18"/><path class="cls-45" d="M397.59,487.65c57.68-.83,64-5.34,133.05-5.34s75.37,4.51,133.05,5.34"/><path class="cls-46" d="M394.65,487.64c57.68-.84,64-5.5,133.05-5.5s75.36,4.66,133,5.5"/><path class="cls-47" d="M391.7,487.64c57.68-.87,64-5.67,133.05-5.67s75.37,4.8,133,5.67"/><path class="cls-48" d="M388.76,487.64c57.68-.89,64-5.84,133-5.84s75.37,4.95,133.05,5.84"/><path class="cls-49" d="M385.82,487.64c57.68-.92,64-6,133.05-6s75.37,5.1,133,6"/><path class="cls-50" d="M382.88,487.64c57.68-.95,63.95-6.21,133-6.21s75.37,5.26,133.05,6.21"/><path class="cls-51" d="M379.94,487.64c57.68-1,63.95-6.4,133-6.4s75.37,5.42,133,6.4"/><path class="cls-52" d="M377,487.64c57.68-1,64-6.6,133.05-6.6s75.37,5.59,133.05,6.6"/><path class="cls-53" d="M374.05,487.64c57.68-1,64-6.81,133.05-6.81s75.37,5.77,133,6.81"/><path class="cls-54" d="M371.11,487.64c57.68-1.08,63.95-7,133.05-7s75.37,5.94,133.05,7"/><path class="cls-55" d="M368.17,487.64c57.68-1.11,63.95-7.23,133.05-7.23s75.36,6.12,133,7.23"/><path class="cls-56" d="M365.22,487.64c57.68-1.14,64-7.46,133-7.46s75.37,6.32,133.05,7.46"/><path class="cls-57" d="M362.28,487.64c57.68-1.18,64-7.69,133.05-7.69s75.37,6.51,133.05,7.69"/><path class="cls-58" d="M359.34,487.64c57.68-1.22,64-7.93,133.05-7.93s75.37,6.71,133.05,7.93"/><path class="cls-59" d="M356.4,487.64c57.68-1.26,64-8.17,133.05-8.17s75.37,6.91,133.05,8.17"/><path class="cls-60" d="M353.46,487.64c57.68-1.29,64-8.43,133-8.43s75.37,7.14,133,8.43"/><path class="cls-61" d="M350.51,487.64c57.68-1.34,64-8.69,133.05-8.69s75.37,7.35,133.05,8.69"/><path class="cls-62" d="M347.57,487.64c57.68-1.38,64-9,133.05-9s75.37,7.58,133,9"/><path class="cls-63" d="M344.63,487.64c57.68-1.42,63.95-9.23,133.05-9.23s75.37,7.81,133.05,9.23"/><path class="cls-64" d="M341.69,487.64c57.68-1.46,63.95-9.52,133.05-9.52s75.36,8.06,133,9.52"/><path class="cls-65" d="M338.74,487.64c57.68-1.51,64-9.81,133.05-9.81s75.37,8.3,133.05,9.81"/><path class="cls-66" d="M335.8,487.64c57.68-1.56,64-10.12,133.05-10.12s75.37,8.56,133,10.12"/><path class="cls-67" d="M332.86,487.64c57.68-1.61,63.95-10.43,133.05-10.43S541.28,486,599,487.64"/><path class="cls-68" d="M329.92,487.64C387.6,486,393.87,476.89,463,476.89s75.36,9.09,133,10.75"/><path class="cls-69" d="M327,487.64c57.69-1.71,64-11.09,133-11.09s75.37,9.38,133.05,11.09"/><path class="cls-70" d="M324,487.64c57.68-1.76,64-11.43,133.05-11.43s75.37,9.67,133.05,11.43"/><path class="cls-71" d="M321.09,487.64c57.68-1.82,64-11.78,133.05-11.78s75.37,10,133.05,11.78"/><path class="cls-72" d="M318.15,487.64c57.68-1.87,64-12.15,133.05-12.15s75.37,10.28,133.05,12.15"/><path class="cls-73" d="M315.21,487.64c57.68-1.93,64-12.52,133.05-12.52s75.36,10.59,133,12.52"/><path class="cls-74" d="M312.26,487.63c57.68-2,64-12.9,133.05-12.9s75.37,10.92,133.05,12.9"/><path class="cls-75" d="M309.32,487.63c57.68-2,64-13.3,133.05-13.3s75.37,11.26,133,13.3"/><path class="cls-76" d="M306.38,487.63c57.68-2.11,63.95-13.71,133.05-13.71s75.37,11.6,133.05,13.71"/><path class="cls-77" d="M303.44,487.63c57.68-2.17,63.95-14.14,133.05-14.14s75.36,12,133,14.14"/><path class="cls-78" d="M300.49,487.63c57.69-2.24,64-14.58,133.05-14.58s75.37,12.34,133.05,14.58"/><path class="cls-79" d="M297.55,487.63c57.68-2.31,64-15,133.05-15s75.37,12.72,133,15"/><path class="cls-80" d="M294.61,487.63c57.68-2.38,64-15.49,133.05-15.49S503,485.25,560.71,487.63"/><path class="cls-81" d="M291.67,487.63c57.68-2.46,63.95-16,133.05-16s75.37,13.51,133,16"/><path class="cls-82" d="M288.73,487.63c57.68-2.53,63.95-16.47,133-16.47s75.37,13.94,133.05,16.47"/><path class="cls-83" d="M285.78,487.63c57.68-2.61,64-17,133.05-17s75.37,14.37,133.05,17"/><path class="cls-84" d="M282.84,487.63c57.68-2.69,64-17.5,133.05-17.5s75.37,14.81,133.05,17.5"/><path class="cls-85" d="M279.9,487.63c57.68-2.78,64-18.05,133.05-18.05S488.32,484.85,546,487.63"/><path class="cls-86" d="M277,487.63C334.64,484.77,340.91,469,410,469s75.36,15.75,133,18.61"/><path class="cls-87" d="M274,487.63c57.68-2.95,64-19.18,133.05-19.18s75.37,16.23,133.05,19.18"/><path class="cls-88" d="M271.07,487.63c57.68-3,64-19.78,133.05-19.78s75.37,16.74,133,19.78"/><path class="cls-89" d="M268.13,487.62c57.68-3.13,64-20.38,133.05-20.38s75.37,17.25,133.05,20.38"/><path class="cls-90" d="M265.19,487.62c57.68-3.23,63.95-21,133.05-21s75.37,17.78,133,21"/><path class="cls-91" d="M262.25,487.62c57.68-3.33,63.95-21.66,133-21.66s75.37,18.33,133.05,21.66"/><path class="cls-92" d="M259.3,487.62c57.68-3.43,64-22.33,133.05-22.33s75.37,18.9,133,22.33"/><path class="cls-93" d="M256.36,487.62c57.68-3.54,64-23,133.05-23s75.37,19.48,133.05,23"/><path class="cls-94" d="M253.42,487.62c57.68-3.65,64-23.74,133.05-23.74s75.37,20.09,133,23.74"/><path class="cls-95" d="M250.48,487.62c57.68-3.76,64-24.47,133-24.47s75.36,20.71,133,24.47"/><path class="cls-96" d="M247.53,487.62c57.68-3.88,64-25.23,133-25.23S456,483.74,513.63,487.62"/><path class="cls-97" d="M244.59,487.62c57.68-4,64-26,133-26s75.37,22,133.05,26"/><path class="cls-98" d="M241.65,487.62c57.68-4.13,64-26.81,133-26.81s75.37,22.68,133.05,26.81"/><path class="cls-99" d="M238.71,487.61c57.68-4.25,64-27.64,133-27.64s75.37,23.39,133.05,27.64"/><path class="cls-100" d="M235.77,487.61c57.68-4.38,64-28.49,133-28.49s75.37,24.11,133.05,28.49"/><path class="cls-101" d="M232.82,487.61c57.68-4.51,64-29.37,133.05-29.37s75.37,24.86,133.05,29.37"/><path class="cls-102" d="M229.88,487.61c57.68-4.66,64-30.28,133.05-30.28S438.3,483,496,487.61"/><path class="cls-103" d="M226.94,487.61c57.68-4.8,63.95-31.22,133.05-31.22S435.36,482.81,493,487.61"/><path class="cls-104" d="M224,487.61c57.68-4.95,63.95-32.19,133.05-32.19s75.36,27.24,133,32.19"/><path class="cls-105" d="M221.05,487.61c57.68-5.11,64-33.19,133.05-33.19s75.37,28.08,133,33.19"/><path class="cls-106" d="M218.11,487.61c57.68-5.26,64-34.21,133.05-34.21s75.37,29,133,34.21"/><path class="cls-107" d="M215.17,487.6c57.68-5.42,64-35.26,133.05-35.26s75.37,29.84,133,35.26"/><path class="cls-108" d="M212.23,487.6c57.68-5.59,64-36.35,133-36.35S420.65,482,478.33,487.6"/><path class="cls-109" d="M209.29,487.6c57.68-5.76,64-37.48,133-37.48s75.37,31.72,133.05,37.48"/><path class="cls-110" d="M206.34,487.6c57.68-5.94,64-38.64,133-38.64s75.37,32.7,133.05,38.64"/><path class="cls-111" d="M203.4,487.6c57.68-6.13,64-39.84,133-39.84s75.37,33.71,133.05,39.84"/><path class="cls-112" d="M200.46,487.6c57.68-6.32,64-41.07,133-41.07s75.37,34.75,133.05,41.07"/><path class="cls-113" d="M197.52,487.59c57.68-6.51,64-42.33,133-42.33s75.36,35.82,133,42.33"/><path class="cls-114" d="M194.57,487.59c57.68-6.71,64-43.64,133.05-43.64S403,480.88,460.67,487.59"/><path class="cls-115" d="M191.63,487.59c57.68-6.92,64-45,133.05-45s75.37,38.08,133.05,45"/><path class="cls-116" d="M188.69,487.59c57.68-7.13,63.95-46.39,133.05-46.39s75.37,39.26,133.05,46.39"/><path class="cls-117" d="M185.75,487.59c57.68-7.36,63.95-47.83,133.05-47.83s75.37,40.47,133.05,47.83"/><path class="cls-118" d="M182.8,487.59c57.69-7.59,64-49.31,133.05-49.31s75.37,41.72,133,49.31"/><path class="cls-119" d="M179.86,487.58c57.68-7.81,64-50.82,133.05-50.82s75.37,43,133,50.82"/><path class="cls-120" d="M176.92,487.58c57.68-8.06,64-52.4,133.05-52.4s75.37,44.34,133,52.4"/><path class="cls-121" d="M174,487.58c57.68-8.31,64-54,133-54s75.37,45.71,133.05,54"/><path class="cls-122" d="M171,487.58c57.68-8.57,64-55.69,133-55.69s75.36,47.12,133,55.69"/><path class="cls-123" d="M168.09,487.57c57.68-8.82,64-57.41,133-57.41s75.37,48.59,133.05,57.41"/><path class="cls-124" d="M165.15,487.57c57.68-9.1,64-59.19,133-59.19s75.37,50.09,133.05,59.19"/><path class="cls-125" d="M162.21,487.57c57.68-9.38,63.95-61,133-61s75.37,51.64,133.05,61"/><path class="cls-126" d="M159.27,487.57c57.68-9.68,63.95-62.91,133-62.91s75.36,53.23,133.05,62.91"/><path class="cls-127" d="M156.32,487.56c57.69-10,64-64.85,133.05-64.85s75.37,54.88,133.05,64.85"/><path class="cls-128" d="M153.38,487.56c57.68-10.28,64-66.86,133.05-66.86s75.37,56.58,133.05,66.86"/><path class="cls-129" d="M150.44,487.56c57.68-10.6,64-68.93,133.05-68.93S358.86,477,416.54,487.56"/><path class="cls-130" d="M147.5,487.56c57.68-10.93,63.95-71.06,133.05-71.06s75.37,60.13,133.05,71.06"/><path class="cls-131" d="M144.56,487.55c57.68-11.26,63.95-73.25,133-73.25s75.37,62,133,73.25"/><path class="cls-132" d="M141.61,487.55c57.68-11.61,64-75.52,133.05-75.52s75.37,63.91,133,75.52"/><path class="cls-133" d="M138.67,487.55c57.68-12,64-77.86,133.05-77.86s75.37,65.88,133,77.86"/><path class="cls-134" d="M135.73,487.54c57.68-12.34,64-80.26,133-80.26s75.37,67.92,133.05,80.26"/><path class="cls-135" d="M132.79,487.54c57.68-12.72,64-82.75,133-82.75s75.36,70,133.05,82.75"/><path class="cls-136" d="M129.84,487.54c57.69-13.12,64-85.31,133-85.31s75.37,72.19,133.05,85.31"/><path class="cls-137" d="M126.9,487.53c57.68-13.52,64-87.94,133-87.94S335.32,474,393,487.53"/><path class="cls-138" d="M124,487.53c57.68-13.94,64-90.67,133.05-90.67s75.37,76.73,133.05,90.67"/><path class="cls-139" d="M121,487.53c57.68-14.38,64-93.47,133.05-93.47s75.37,79.09,133.05,93.47"/><path class="cls-140" d="M118.08,487.52c57.68-14.82,64-96.36,133-96.36s75.37,81.54,133.05,96.36"/><path class="cls-141" d="M115.13,487.52c57.68-15.28,64-99.34,133.05-99.34s75.37,84.06,133.05,99.34"/><path class="cls-142" d="M112.19,487.51c57.68-15.75,64-102.41,133.05-102.41s75.37,86.66,133.05,102.41"/><path class="cls-143" d="M109.25,487.51c57.68-16.24,63.95-105.58,133.05-105.58s75.37,89.34,133.05,105.58"/><path class="cls-144" d="M106.31,487.5C164,470.77,170.26,378.66,239.36,378.66s75.36,92.11,133,108.84"/><path class="cls-145" d="M103.36,487.5c57.68-17.26,64-112.21,133.05-112.21s75.37,94.95,133,112.21"/><path class="cls-146" d="M100.42,487.49c57.68-17.78,64-115.68,133.05-115.68s75.37,97.9,133,115.68"/><path class="cls-147" d="M97.48,487.49c57.68-18.34,64-119.26,133.05-119.26s75.37,100.92,133,119.26"/><path class="cls-148" d="M94.54,487.48c57.68-18.9,64-122.94,133.05-122.94s75.37,104,133,122.94"/><path class="cls-149" d="M91.6,487.48c57.68-19.49,64-126.75,133-126.75S300,468,357.69,487.48"/><path class="cls-150" d="M88.65,487.47c57.68-20.09,64-130.67,133-130.67s75.37,110.58,133.05,130.67"/><path class="cls-151" d="M85.71,487.47c57.68-20.72,64-134.71,133.05-134.71s75.37,114,133.05,134.71"/><path class="cls-152" d="M82.77,487.46c57.68-21.35,64-138.88,133.05-138.88s75.37,117.53,133.05,138.88"/><path class="cls-153" d="M79.83,487.46c57.68-22,64-143.18,133.05-143.18s75.36,121.16,133,143.18"/><path class="cls-154" d="M76.88,487.45c57.68-22.7,64-147.6,133.05-147.6S285.3,464.75,343,487.45"/><path class="cls-155" d="M73.94,487.44c57.68-23.39,64-152.16,133.05-152.16S282.36,464.05,340,487.44"/><path class="cls-156" d="M71,487.44c57.68-24.12,64-156.87,133.05-156.87S279.42,463.32,337.1,487.44"/><path class="cls-157" d="M68.06,487.43C125.74,462.56,132,325.71,201.11,325.71s75.37,136.85,133.05,161.72"/><path class="cls-158" d="M65.12,487.43c57.68-25.64,63.95-166.73,133-166.73s75.37,141.09,133,166.73"/><path class="cls-159" d="M62.17,487.42c57.68-26.43,64-171.88,133.05-171.88s75.37,145.45,133,171.88"/><path class="cls-160" d="M59.23,487.41c57.68-27.25,64-177.2,133.05-177.2s75.37,150,133,177.2"/><path class="cls-161" d="M56.29,487.4c57.68-28.09,64-182.68,133.05-182.68s75.37,154.59,133,182.68"/><path class="cls-162" d="M53.35,487.4c57.68-29,64-188.33,133.05-188.33s75.36,159.37,133,188.33"/><path class="cls-163" d="M50.4,487.39c57.68-29.86,64-194.16,133-194.16s75.37,164.3,133.05,194.16"/><path class="cls-164" d="M47.46,487.38c57.68-30.78,64-200.16,133-200.16S255.88,456.6,313.56,487.38"/><path class="cls-165" d="M44.52,487.37c57.68-31.73,64-206.35,133-206.35s75.37,174.62,133.05,206.35"/><path class="cls-166" d="M41.58,487.36c57.68-32.71,64-212.73,133.05-212.73s75.37,180,133.05,212.73"/><path class="cls-167" d="M38.64,487.35c57.68-33.72,64-219.31,133-219.31s75.37,185.59,133.05,219.31"/><path class="cls-168" d="M35.69,487.34c57.68-34.76,64-226.09,133.05-226.09s75.37,191.33,133.05,226.09"/><path class="cls-169" d="M32.75,487.33c57.68-35.84,64-233.08,133.05-233.08s75.37,197.24,133.05,233.08"/><path class="cls-170" d="M29.81,487.32C87.49,450.37,93.76,247,162.86,247s75.37,203.34,133.05,240.29"/><path class="cls-171" d="M26.87,487.31c57.68-38.09,63.95-247.72,133-247.72s75.36,209.63,133,247.72"/><path class="cls-172" d="M23.92,487.3C81.6,448,87.88,231.92,157,231.92S232.34,448,290,487.3"/><path class="cls-173" d="M21,487.29C78.66,446.81,84.94,224,154,224s75.37,222.8,133,263.28"/><path class="cls-174" d="M18,487.28c57.68-41.74,64-271.43,133.05-271.43s75.37,229.69,133,271.43"/><path class="cls-175" d="M15.1,487.27c57.68-43,64-279.82,133.05-279.82s75.36,236.79,133,279.82"/><path class="cls-176" d="M12.15,487.26c57.69-44.36,64-288.48,133-288.48S220.57,442.9,278.25,487.26"/><path class="cls-177" d="M9.21,487.25c57.68-45.74,64-297.4,133-297.4s75.37,251.66,133.05,297.4"/><path class="cls-178" d="M6.27,487.23c57.68-47.14,64-306.59,133-306.59s75.37,259.45,133.05,306.59"/><path class="cls-179" d="M3.33,487.22c57.68-48.6,64-316.08,133-316.08s75.37,267.48,133.05,316.08"/><path class="cls-180" d="M.39,487.21c57.68-50.11,64-325.86,133.05-325.86s75.36,275.75,133,325.86"/></g></g></g></svg>