<svg xmlns="http://www.w3.org/2000/svg" viewBox="0 0 560.15 653.45"><defs><style>.cls-1{fill:none;stroke:#fff;stroke-miterlimit:10;stroke-width:0.33px;}</style></defs><title>topshape</title><g id="Layer_2" data-name="Layer 2"><g id="Layer_1-2" data-name="Layer 1"><ellipse class="cls-1" cx="254.04" cy="207.29" rx="70.5" ry="21.54" transform="translate(-68.05 268.65) rotate(-50)"/><ellipse class="cls-1" cx="260.2" cy="208.98" rx="71.22" ry="21.76" transform="translate(-71.56 245.2) rotate(-45)"/><ellipse class="cls-1" cx="266.25" cy="211.23" rx="71.94" ry="21.98" transform="translate(-73.48 220.56) rotate(-40)"/><ellipse class="cls-1" cx="272.14" cy="214.02" rx="72.66" ry="22.2" transform="translate(-73.54 194.8) rotate(-35)"/><ellipse class="cls-1" cx="277.82" cy="217.35" rx="73.4" ry="22.42" transform="translate(-71.45 168.03) rotate(-30)"/><ellipse class="cls-1" cx="283.25" cy="221.19" rx="74.14" ry="22.65" transform="translate(-66.94 140.43) rotate(-25)"/><ellipse class="cls-1" cx="288.37" cy="225.54" rx="74.89" ry="22.88" transform="translate(-59.75 112.23) rotate(-20)"/><ellipse class="cls-1" cx="293.13" cy="230.37" rx="75.64" ry="23.11" transform="translate(-49.64 83.72) rotate(-15)"/><ellipse class="cls-1" cx="297.51" cy="235.65" rx="76.41" ry="23.34" transform="translate(-36.4 55.24) rotate(-10)"/><ellipse class="cls-1" cx="301.44" cy="241.34" rx="77.18" ry="23.58" transform="translate(-19.89 27.19) rotate(-5)"/><ellipse class="cls-1" cx="304.9" cy="247.42" rx="77.96" ry="23.82"/><ellipse class="cls-1" cx="307.85" cy="253.84" rx="24.06" ry="78.75" transform="translate(28.15 538.39) rotate(-85)"/><ellipse class="cls-1" cx="310.25" cy="260.56" rx="24.3" ry="79.54" transform="translate(-0.22 520.84) rotate(-80)"/><ellipse class="cls-1" cx="312.07" cy="267.53" rx="24.55" ry="80.34" transform="translate(-27.11 499.72) rotate(-75)"/><ellipse class="cls-1" cx="313.29" cy="274.7" rx="24.79" ry="81.16" transform="translate(-52 475.15) rotate(-70)"/><ellipse class="cls-1" cx="313.89" cy="282.03" rx="25.04" ry="81.98" transform="translate(-74.38 447.32) rotate(-65)"/><ellipse class="cls-1" cx="313.84" cy="289.46" rx="25.3" ry="82.8" transform="matrix(0.5, -0.87, 0.87, 0.5, -93.76, 416.52)"/><ellipse class="cls-1" cx="313.14" cy="296.93" rx="25.55" ry="83.64" transform="translate(-109.7 383.13) rotate(-55)"/><ellipse class="cls-1" cx="311.78" cy="304.38" rx="25.81" ry="84.48" transform="translate(-121.8 347.57) rotate(-50)"/><ellipse class="cls-1" cx="309.75" cy="311.77" rx="26.07" ry="85.34" transform="translate(-129.73 310.34) rotate(-45)"/><ellipse class="cls-1" cx="307.07" cy="319.02" rx="26.33" ry="86.2" transform="translate(-133.22 272.01) rotate(-40)"/><ellipse class="cls-1" cx="303.72" cy="326.07" rx="26.6" ry="87.07" transform="matrix(0.82, -0.57, 0.57, 0.82, -132.1, 233.18)"/><ellipse class="cls-1" cx="299.74" cy="332.88" rx="26.87" ry="87.95" transform="matrix(0.87, -0.5, 0.5, 0.87, -126.28, 194.47)"/><ellipse class="cls-1" cx="295.13" cy="339.38" rx="27.14" ry="88.84" transform="translate(-115.78 156.52) rotate(-25)"/><ellipse class="cls-1" cx="289.91" cy="345.52" rx="27.42" ry="89.74" transform="translate(-100.69 119.99) rotate(-20)"/><ellipse class="cls-1" cx="284.13" cy="351.23" rx="27.69" ry="90.64" transform="translate(-81.22 85.51) rotate(-15)"/><ellipse class="cls-1" cx="277.81" cy="356.47" rx="27.97" ry="91.56" transform="translate(-57.68 53.66) rotate(-10)"/><ellipse class="cls-1" cx="270.98" cy="361.19" rx="28.25" ry="92.48" transform="translate(-30.45 24.99) rotate(-5)"/><ellipse class="cls-1" cx="263.7" cy="365.33" rx="28.54" ry="93.42"/><ellipse class="cls-1" cx="256.01" cy="368.86" rx="94.36" ry="28.83" transform="translate(-133.76 591.75) rotate(-85)"/><ellipse class="cls-1" cx="247.96" cy="371.74" rx="95.31" ry="29.12" transform="matrix(0.17, -0.98, 0.98, 0.17, -161.19, 551.37)"/><ellipse class="cls-1" cx="239.6" cy="373.92" rx="96.28" ry="29.41" transform="translate(-183.59 508.58) rotate(-75)"/><ellipse class="cls-1" cx="231" cy="375.38" rx="97.25" ry="29.71" transform="translate(-200.75 464.07) rotate(-70)"/><ellipse class="cls-1" cx="222.22" cy="376.1" rx="98.23" ry="30.01" transform="translate(-212.55 418.55) rotate(-65)"/><ellipse class="cls-1" cx="213.32" cy="376.04" rx="99.22" ry="30.31" transform="translate(-219 372.76) rotate(-60)"/><ellipse class="cls-1" cx="204.37" cy="375.21" rx="100.23" ry="30.62" transform="translate(-220.2 327.41) rotate(-55)"/><ellipse class="cls-1" cx="195.44" cy="373.57" rx="101.24" ry="30.93" transform="translate(-216.36 283.16) rotate(-50)"/><ellipse class="cls-1" cx="186.59" cy="371.15" rx="102.26" ry="31.24" transform="translate(-207.79 240.65) rotate(-45)"/><ellipse class="cls-1" cx="177.9" cy="367.92" rx="103.29" ry="31.56" transform="translate(-194.88 200.43) rotate(-40)"/><ellipse class="cls-1" cx="169.45" cy="363.92" rx="104.34" ry="31.88" transform="translate(-178.09 163) rotate(-35)"/><ellipse class="cls-1" cx="161.29" cy="359.14" rx="105.39" ry="32.2" transform="translate(-157.96 128.76) rotate(-30)"/><ellipse class="cls-1" cx="153.5" cy="353.62" rx="106.46" ry="32.52" transform="translate(-135.06 98) rotate(-25)"/><ellipse class="cls-1" cx="146.15" cy="347.37" rx="107.53" ry="32.85" transform="translate(-109.99 70.94) rotate(-20)"/><ellipse class="cls-1" cx="139.3" cy="340.44" rx="108.62" ry="33.18" transform="translate(-83.37 47.65) rotate(-15)"/><ellipse class="cls-1" cx="133.02" cy="332.86" rx="109.71" ry="33.52" transform="matrix(0.98, -0.17, 0.17, 0.98, -55.78, 28.16)"/><ellipse class="cls-1" cx="127.37" cy="324.69" rx="110.82" ry="33.86" transform="translate(-27.81 12.34) rotate(-5)"/><ellipse class="cls-1" cx="122.4" cy="315.96" rx="111.94" ry="34.2"/><ellipse class="cls-1" cx="118.17" cy="306.74" rx="34.54" ry="113.07" transform="translate(-197.7 397.73) rotate(-85)"/><ellipse class="cls-1" cx="114.73" cy="297.09" rx="34.89" ry="114.22" transform="translate(-197.77 358.49) rotate(-80)"/><ellipse class="cls-1" cx="112.11" cy="287.08" rx="35.25" ry="115.37" transform="translate(-194.21 321.07) rotate(-75)"/><ellipse class="cls-1" cx="110.36" cy="276.78" rx="35.6" ry="116.53" transform="translate(-187.47 285.82) rotate(-70)"/><ellipse class="cls-1" cx="109.5" cy="266.25" rx="35.96" ry="117.71" transform="translate(-178.08 252.97) rotate(-65)"/><ellipse class="cls-1" cx="109.57" cy="255.59" rx="36.32" ry="118.9" transform="translate(-166.56 222.68) rotate(-60)"/><ellipse class="cls-1" cx="110.57" cy="244.86" rx="36.69" ry="120.1" transform="translate(-153.43 194.99) rotate(-55)"/><ellipse class="cls-1" cx="112.53" cy="234.16" rx="37.06" ry="121.31" transform="translate(-139.18 169.84) rotate(-50)"/><ellipse class="cls-1" cx="115.44" cy="223.56" rx="37.44" ry="122.54" transform="translate(-124.27 147.1) rotate(-45)"/><ellipse class="cls-1" cx="119.3" cy="213.15" rx="37.81" ry="123.78" transform="translate(-109.1 126.55) rotate(-40)"/><ellipse class="cls-1" cx="124.1" cy="203.01" rx="38.2" ry="125.03" transform="translate(-94 107.89) rotate(-35)"/><ellipse class="cls-1" cx="129.82" cy="193.24" rx="38.58" ry="126.29" transform="translate(-79.23 90.8) rotate(-30)"/><ellipse class="cls-1" cx="136.44" cy="183.91" rx="38.97" ry="127.57" transform="translate(-64.94 74.89) rotate(-25)"/><ellipse class="cls-1" cx="143.93" cy="175.1" rx="39.37" ry="128.86" transform="translate(-51.21 59.78) rotate(-20)"/><ellipse class="cls-1" cx="152.23" cy="166.89" rx="39.76" ry="130.16" transform="matrix(0.97, -0.26, 0.26, 0.97, -38.01, 45.09)"/><ellipse class="cls-1" cx="161.31" cy="159.37" rx="40.17" ry="131.47" transform="translate(-25.22 30.43) rotate(-10)"/><ellipse class="cls-1" cx="171.11" cy="152.6" rx="40.57" ry="132.8" transform="translate(-12.65 15.49) rotate(-5)"/><ellipse class="cls-1" cx="181.57" cy="146.64" rx="40.98" ry="134.14"/><ellipse class="cls-1" cx="192.61" cy="141.57" rx="135.5" ry="41.39" transform="matrix(0.09, -1, 1, 0.09, 34.79, 321.11)"/><ellipse class="cls-1" cx="204.17" cy="137.45" rx="136.86" ry="41.81" transform="translate(33.36 314.65) rotate(-80)"/><ellipse class="cls-1" cx="216.17" cy="134.31" rx="138.25" ry="42.24" transform="translate(30.49 308.35) rotate(-75)"/><ellipse class="cls-1" cx="228.52" cy="132.21" rx="139.64" ry="42.66" transform="translate(26.12 301.73) rotate(-70)"/><ellipse class="cls-1" cx="241.13" cy="131.18" rx="141.05" ry="43.09" transform="translate(20.33 294.28) rotate(-65)"/><ellipse class="cls-1" cx="253.91" cy="131.26" rx="142.48" ry="43.53" transform="translate(13.28 285.52) rotate(-60)"/><ellipse class="cls-1" cx="266.76" cy="132.47" rx="143.92" ry="43.97" transform="translate(5.24 275) rotate(-55)"/><ellipse class="cls-1" cx="279.59" cy="134.81" rx="145.37" ry="44.41" transform="matrix(0.64, -0.77, 0.77, 0.64, -3.4, 262.33)"/><ellipse class="cls-1" cx="292.29" cy="138.29" rx="146.84" ry="44.86" transform="translate(-12.18 247.19) rotate(-45)"/><ellipse class="cls-1" cx="304.76" cy="142.92" rx="148.32" ry="45.31" transform="translate(-20.57 229.34) rotate(-40)"/><ellipse class="cls-1" cx="316.91" cy="148.67" rx="149.82" ry="45.77" transform="translate(-27.96 208.66) rotate(-35)"/><ellipse class="cls-1" cx="328.62" cy="155.53" rx="151.33" ry="46.23" transform="translate(-33.74 185.15) rotate(-30)"/><ellipse class="cls-1" cx="339.81" cy="163.47" rx="152.86" ry="46.7" transform="translate(-37.25 158.92) rotate(-25)"/><ellipse class="cls-1" cx="350.36" cy="172.43" rx="154.41" ry="47.17" transform="translate(-37.85 130.23) rotate(-20)"/><ellipse class="cls-1" cx="360.19" cy="182.38" rx="155.97" ry="47.65" transform="translate(-34.93 99.44) rotate(-15)"/><ellipse class="cls-1" cx="369.21" cy="193.27" rx="157.54" ry="48.13" transform="translate(-27.95 67.05) rotate(-10)"/><ellipse class="cls-1" cx="377.33" cy="205.01" rx="159.13" ry="48.62" transform="translate(-16.43 33.67) rotate(-5)"/><ellipse class="cls-1" cx="384.46" cy="217.54" rx="160.74" ry="49.11"/><ellipse class="cls-1" cx="390.53" cy="230.77" rx="49.6" ry="162.36" transform="translate(126.6 599.71) rotate(-85)"/><ellipse class="cls-1" cx="395.48" cy="244.63" rx="50.1" ry="164" transform="translate(85.89 591.62) rotate(-80)"/><ellipse class="cls-1" cx="399.24" cy="259" rx="50.61" ry="165.66" transform="translate(45.73 577.6) rotate(-75)"/><ellipse class="cls-1" cx="401.75" cy="273.8" rx="51.12" ry="167.33" transform="translate(7.06 557.68) rotate(-70)"/><ellipse class="cls-1" cx="402.98" cy="288.91" rx="51.64" ry="169.03" transform="translate(-29.17 532.04) rotate(-65)"/><ellipse class="cls-1" cx="402.89" cy="304.23" rx="52.16" ry="170.73" transform="translate(-62.02 501.03) rotate(-60)"/><ellipse class="cls-1" cx="401.45" cy="319.63" rx="52.69" ry="172.46" transform="translate(-90.64 465.14) rotate(-55)"/><ellipse class="cls-1" cx="398.64" cy="335" rx="53.22" ry="174.2" transform="translate(-114.22 425.04) rotate(-50)"/><ellipse class="cls-1" cx="394.46" cy="350.22" rx="53.76" ry="175.96" transform="translate(-132.11 381.5) rotate(-45)"/><ellipse class="cls-1" cx="388.92" cy="365.17" rx="54.3" ry="177.74" transform="translate(-143.73 335.43) rotate(-40)"/><ellipse class="cls-1" cx="382.02" cy="379.72" rx="54.85" ry="179.53" transform="translate(-148.71 287.79) rotate(-35)"/><ellipse class="cls-1" cx="373.81" cy="393.76" rx="55.4" ry="181.34" transform="translate(-146.8 239.66) rotate(-30)"/><ellipse class="cls-1" cx="364.3" cy="407.16" rx="55.96" ry="183.18" transform="translate(-137.94 192.11) rotate(-25)"/><ellipse class="cls-1" cx="353.55" cy="419.81" rx="56.53" ry="185.03" transform="translate(-122.26 146.24) rotate(-20)"/><ellipse class="cls-1" cx="341.63" cy="431.59" rx="57.1" ry="186.9" transform="translate(-100.06 103.13) rotate(-15)"/><ellipse class="cls-1" cx="328.59" cy="442.39" rx="57.67" ry="188.78" transform="translate(-71.83 63.78) rotate(-10)"/><ellipse class="cls-1" cx="314.52" cy="452.12" rx="58.26" ry="190.69" transform="translate(-38.21 29.13) rotate(-5)"/><ellipse class="cls-1" cx="299.51" cy="460.66" rx="58.85" ry="192.62"/></g></g></svg>